<svg width="15" height="15" viewBox="0 0 15 15" fill="none" xmlns="http://www.w3.org/2000/svg">
<path opacity="0.25" d="M6.875 1.25H8.125V13.75H6.875V1.25Z" fill="#1976D2"/>
<path d="M1.875 1.25H6.875V13.75H1.875C1.70924 13.75 1.55027 13.6842 1.43306 13.5669C1.31585 13.4497 1.25 13.2908 1.25 13.125V1.875C1.25 1.70924 1.31585 1.55027 1.43306 1.43306C1.55027 1.31585 1.70924 1.25 1.875 1.25Z" fill="#1976D2"/>
<path opacity="0.5" d="M8.125 1.25H13.125C13.2908 1.25 13.4497 1.31585 13.5669 1.43306C13.6842 1.55027 13.75 1.70924 13.75 1.875V13.125C13.75 13.2908 13.6842 13.4497 13.5669 13.5669C13.4497 13.6842 13.2908 13.75 13.125 13.75H8.125V1.25Z" fill="#1976D2"/>
</svg>
