<svg width="13" height="13" viewBox="0 0 13 13" fill="none" xmlns="http://www.w3.org/2000/svg">
<path d="M10 9.1875V10.3125C10 10.3958 10.0313 10.4688 10.0938 10.5313C10.1563 10.5938 10.2292 10.625 10.3125 10.625C10.3958 10.625 10.4688 10.5938 10.5313 10.5313C10.5938 10.4688 10.625 10.3958 10.625 10.3125V8.4375C10.625 8.35417 10.5938 8.28125 10.5313 8.21875C10.4688 8.15625 10.3958 8.125 10.3125 8.125H8.4375C8.35417 8.125 8.28125 8.15625 8.21875 8.21875C8.15625 8.28125 8.125 8.35417 8.125 8.4375C8.125 8.52083 8.15625 8.59375 8.21875 8.65625C8.28125 8.71875 8.35417 8.75 8.4375 8.75H9.5625L8.03125 10.2813C7.96875 10.3438 7.9375 10.4167 7.9375 10.5C7.9375 10.5833 7.96875 10.6563 8.03125 10.7188C8.09375 10.7813 8.16667 10.8125 8.25 10.8125C8.33334 10.8125 8.40625 10.7813 8.46875 10.7188L10 9.1875ZM9.375 12.5C8.51042 12.5 7.77333 12.1952 7.16375 11.5856C6.55417 10.976 6.24958 10.2392 6.25 9.375C6.25 8.51042 6.55479 7.77333 7.16438 7.16375C7.77396 6.55417 8.51083 6.24958 9.375 6.25C10.2396 6.25 10.9767 6.55479 11.5863 7.16438C12.1958 7.77396 12.5004 8.51083 12.5 9.375C12.5 10.2396 12.1952 10.9767 11.5856 11.5863C10.976 12.1958 10.2392 12.5004 9.375 12.5ZM3.125 3.75H8.125C8.30208 3.75 8.45063 3.69 8.57063 3.57C8.69063 3.45 8.75042 3.30167 8.75 3.125C8.75 2.94792 8.69 2.79938 8.57 2.67938C8.45 2.55938 8.30167 2.49958 8.125 2.5H3.125C2.94792 2.5 2.79938 2.56 2.67938 2.68C2.55938 2.8 2.49958 2.94833 2.5 3.125C2.5 3.30208 2.56 3.45063 2.68 3.57063C2.8 3.69063 2.94833 3.75042 3.125 3.75ZM5.42188 11.25H1.25C0.906251 11.25 0.611876 11.1275 0.366876 10.8825C0.121876 10.6375 -0.000415606 10.3433 1.06112e-06 10V1.25C1.06112e-06 0.906251 0.122501 0.611876 0.367501 0.366876C0.612501 0.121876 0.906668 -0.000415606 1.25 1.06112e-06H10C10.3438 1.06112e-06 10.6381 0.122501 10.8831 0.367501C11.1281 0.612501 11.2504 0.906668 11.25 1.25V5.4375C10.9479 5.29167 10.6431 5.18229 10.3356 5.10938C10.0281 5.03646 9.70792 5 9.375 5C9.26042 5 9.15354 5.0025 9.05438 5.0075C8.95521 5.0125 8.85375 5.02563 8.75 5.04688C8.65625 5.02604 8.55208 5.01313 8.4375 5.00813C8.32292 5.00313 8.21875 5.00042 8.125 5H3.125C2.94792 5 2.79938 5.06 2.67938 5.18C2.55938 5.3 2.49958 5.44833 2.5 5.625C2.5 5.80208 2.56 5.95063 2.68 6.07063C2.8 6.19063 2.94833 6.25042 3.125 6.25H6.32813C6.14063 6.42708 5.97125 6.61979 5.82 6.82813C5.66875 7.03646 5.53604 7.26042 5.42188 7.5H3.125C2.94792 7.5 2.79938 7.56 2.67938 7.68C2.55938 7.8 2.49958 7.94833 2.5 8.125C2.5 8.30208 2.56 8.45063 2.68 8.57063C2.8 8.69063 2.94833 8.75042 3.125 8.75H5.04688C5.02604 8.85417 5.01292 8.95584 5.0075 9.055C5.00208 9.15417 4.99958 9.26083 5 9.375C5 9.71875 5.03125 10.0392 5.09375 10.3363C5.15625 10.6333 5.26563 10.9379 5.42188 11.25Z" fill="#1976D2"/>
</svg>
