<svg width="10" height="10" viewBox="0 0 10 10" fill="none" xmlns="http://www.w3.org/2000/svg">
<path d="M0.132252 1.00625C1.39475 2.625 3.726 5.625 3.726 5.625V9.375C3.726 9.71875 4.00725 10 4.351 10H5.601C5.94475 10 6.226 9.71875 6.226 9.375V5.625C6.226 5.625 8.551 2.625 9.8135 1.00625C9.88513 0.913983 9.92942 0.803456 9.94131 0.687254C9.9532 0.571053 9.93222 0.453847 9.88077 0.348982C9.82931 0.244117 9.74945 0.155808 9.65026 0.0941104C9.55108 0.0324124 9.43656 -0.000195022 9.31975 8.77526e-07H0.626002C0.107252 8.77526e-07 -0.186498 0.593751 0.132252 1.00625Z" fill="#1976D2"/>
</svg>
