<svg width="16" height="15" viewBox="0 0 16 15" fill="none" xmlns="http://www.w3.org/2000/svg">
<path d="M15.3714 4.88571C14.9698 3.93519 14.3877 3.07162 13.6571 2.34286C12.9284 1.61234 12.0648 1.03015 11.1143 0.628571C10.1268 0.210714 9.08036 0 8 0C6.91964 0 5.87321 0.210714 4.88571 0.628571C3.93519 1.03015 3.07162 1.61234 2.34286 2.34286C1.61234 3.07162 1.03015 3.93519 0.628571 4.88571C0.210714 5.87321 0 6.91964 0 8C0 10.3696 1.04107 12.6018 2.85536 14.1268L2.88571 14.1518C2.98929 14.2375 3.11964 14.2857 3.25357 14.2857H12.7482C12.8821 14.2857 13.0125 14.2375 13.1161 14.1518L13.1464 14.1268C14.9589 12.6018 16 10.3696 16 8C16 6.91964 15.7875 5.87321 15.3714 4.88571ZM12.4536 12.9286H3.54643C2.85642 12.3064 2.30494 11.5461 1.92778 10.6971C1.55062 9.84797 1.3562 8.92908 1.35714 8C1.35714 6.225 2.04821 4.55714 3.30357 3.30357C4.55893 2.04821 6.22679 1.35714 8 1.35714C9.775 1.35714 11.4429 2.04821 12.6964 3.30357C13.9518 4.55893 14.6429 6.22679 14.6429 8C14.6429 9.88571 13.8482 11.6696 12.4536 12.9286ZM9.99107 5.52679C9.96422 5.5002 9.92796 5.48529 9.89018 5.48529C9.85239 5.48529 9.81614 5.5002 9.78929 5.52679L8.28036 7.03571C7.94643 6.94643 7.57679 7.03214 7.31429 7.29464C7.22131 7.38744 7.14755 7.49767 7.09722 7.61901C7.04689 7.74035 7.02099 7.87042 7.02099 8.00179C7.02099 8.13315 7.04689 8.26322 7.09722 8.38456C7.14755 8.5059 7.22131 8.61613 7.31429 8.70893C7.40709 8.8019 7.51731 8.87567 7.63865 8.926C7.75999 8.97632 7.89007 9.00223 8.02143 9.00223C8.15279 9.00223 8.28287 8.97632 8.40421 8.926C8.52555 8.87567 8.63577 8.8019 8.72857 8.70893C8.85294 8.58494 8.94237 8.43031 8.98784 8.26068C9.0333 8.09105 9.03319 7.91243 8.9875 7.74286L10.4964 6.23393C10.5518 6.17857 10.5518 6.0875 10.4964 6.03214L9.99107 5.52679ZM7.60714 3.71429H8.39286C8.47143 3.71429 8.53571 3.65 8.53571 3.57143V2.14286C8.53571 2.06429 8.47143 2 8.39286 2H7.60714C7.52857 2 7.46429 2.06429 7.46429 2.14286V3.57143C7.46429 3.65 7.52857 3.71429 7.60714 3.71429ZM12.25 7.60714V8.39286C12.25 8.47143 12.3143 8.53571 12.3929 8.53571H13.8214C13.9 8.53571 13.9643 8.47143 13.9643 8.39286V7.60714C13.9643 7.52857 13.9 7.46429 13.8214 7.46429H12.3929C12.3143 7.46429 12.25 7.52857 12.25 7.60714ZM12.4768 4.08571L11.9214 3.53036C11.8946 3.50377 11.8583 3.48886 11.8205 3.48886C11.7828 3.48886 11.7465 3.50377 11.7196 3.53036L10.7089 4.54107C10.6823 4.56792 10.6674 4.60418 10.6674 4.64196C10.6674 4.67975 10.6823 4.71601 10.7089 4.74286L11.2643 5.29821C11.3196 5.35357 11.4107 5.35357 11.4661 5.29821L12.4768 4.2875C12.5321 4.23214 12.5321 4.14107 12.4768 4.08571ZM4.2875 3.53036C4.26065 3.50377 4.22439 3.48886 4.18661 3.48886C4.14882 3.48886 4.11256 3.50377 4.08571 3.53036L3.53036 4.08571C3.50377 4.11256 3.48886 4.14882 3.48886 4.18661C3.48886 4.22439 3.50377 4.26065 3.53036 4.2875L4.54107 5.29821C4.59643 5.35357 4.6875 5.35357 4.74286 5.29821L5.29821 4.74286C5.35357 4.6875 5.35357 4.59643 5.29821 4.54107L4.2875 3.53036ZM3.53571 7.46429H2.10714C2.02857 7.46429 1.96429 7.52857 1.96429 7.60714V8.39286C1.96429 8.47143 2.02857 8.53571 2.10714 8.53571H3.53571C3.61429 8.53571 3.67857 8.47143 3.67857 8.39286V7.60714C3.67857 7.52857 3.61429 7.46429 3.53571 7.46429Z" fill="black" fill-opacity="0.4"/>
</svg>
