<svg width="15" height="15" viewBox="0 0 15 15" fill="none" xmlns="http://www.w3.org/2000/svg">
<path d="M13.75 2.85893V0.571429C13.75 0.255357 13.4947 0 13.1786 0H1.10715C0.791082 0 0.535725 0.255357 0.535725 0.571429V2.85893C0.237511 2.87679 1.10642e-05 3.125 1.10642e-05 3.42857V5.78036C-0.00113252 6.21258 0.086385 6.64044 0.257154 7.0375C0.33394 7.21964 0.428583 7.39107 0.535725 7.55357V13.7143C0.535725 14.0286 0.791082 14.2857 1.10715 14.2857H13.1786C13.4947 14.2857 13.75 14.0304 13.75 13.7143V7.55357C13.8588 7.39066 13.9521 7.21788 14.0286 7.0375C14.1982 6.63929 14.2857 6.21607 14.2857 5.78036V3.42857C14.2857 3.125 14.0482 2.87679 13.75 2.85893ZM1.82144 1.28571H12.4643V2.85714H1.82144V1.28571ZM8.28573 13.0018H6.00001V11.1429H8.28573V13.0018ZM12.4643 13.0018H9.42858V10.5714C9.42858 10.2554 9.17323 10 8.85715 10H5.42858C5.11251 10 4.85715 10.2554 4.85715 10.5714V13.0018H1.82144V8.67679C1.87323 8.70179 1.9268 8.72679 1.98215 8.74822C2.38037 8.91607 2.80358 9 3.2393 9C3.67501 9 4.09644 8.91607 4.49644 8.74822C4.74287 8.64464 4.97501 8.5125 5.18751 8.35357C5.19108 8.35179 5.19465 8.35179 5.19823 8.35357C5.41139 8.51318 5.64351 8.64574 5.8893 8.74822C6.28751 8.91607 6.71073 9 7.14644 9C7.58215 9 8.00358 8.91607 8.40358 8.74822C8.65001 8.64464 8.88215 8.5125 9.09465 8.35357C9.09823 8.35179 9.1018 8.35179 9.10537 8.35357C9.31853 8.51318 9.55066 8.64574 9.79644 8.74822C10.1947 8.91607 10.6179 9 11.0536 9C11.4893 9 11.9107 8.91607 12.3107 8.74822C12.3643 8.725 12.4179 8.70179 12.4714 8.67679V13.0018H12.4643ZM13 5.78036C13 6.84821 12.125 7.71429 11.0482 7.71429C10.3197 7.71429 9.68394 7.31964 9.34823 6.73393C9.29644 6.64464 9.20358 6.58929 9.10001 6.58929H9.0893C8.98751 6.58929 8.89287 6.64464 8.84108 6.73393C8.66976 7.03271 8.42239 7.2808 8.12411 7.453C7.82583 7.62519 7.48728 7.71534 7.14287 7.71429C6.41608 7.71429 5.78215 7.32143 5.44644 6.7375C5.39287 6.64643 5.29644 6.58929 5.19108 6.58929C5.08573 6.58929 4.98751 6.64643 4.93573 6.7375C4.7634 7.03514 4.51572 7.28212 4.21759 7.4536C3.91947 7.62508 3.58143 7.71499 3.23751 7.71429C2.16073 7.71429 1.28573 6.84821 1.28573 5.78036V4.15179C1.28573 4.14643 1.2893 4.14286 1.29465 4.14286H12.9911C12.9964 4.14286 13 4.14643 13 4.15179V5.78036Z" fill="black" fill-opacity="0.4"/>
</svg>
