<svg width="15" height="15" viewBox="0 0 15 15" fill="none" xmlns="http://www.w3.org/2000/svg">
<path d="M14.529 0.798214L13.7719 0.0410715C13.7433 0.0125001 13.7076 0 13.6701 0C13.6326 0 13.5969 0.0142858 13.5683 0.0410715L12.2094 1.4C11.6186 0.999738 10.9212 0.786334 10.2076 0.7875C9.29329 0.7875 8.379 1.13571 7.68079 1.83393L5.86114 3.65357C5.83456 3.68042 5.81964 3.71668 5.81964 3.75446C5.81964 3.79225 5.83456 3.82851 5.86114 3.85536L10.7129 8.70714C10.7415 8.73571 10.7772 8.74821 10.8147 8.74821C10.8504 8.74821 10.8879 8.73393 10.9165 8.70714L12.7361 6.8875C13.9665 5.65536 14.1111 3.75 13.1701 2.36071L14.529 1.00179C14.5844 0.944643 14.5844 0.853572 14.529 0.798214ZM11.8754 6.02857L10.8147 7.08929L7.479 3.75357L8.53971 2.69286C8.98436 2.24821 9.57722 2.00179 10.2076 2.00179C10.8379 2.00179 11.429 2.24643 11.8754 2.69286C12.3201 3.1375 12.5665 3.73036 12.5665 4.36071C12.5665 4.99107 12.3201 5.58214 11.8754 6.02857ZM8.479 7.90357C8.45215 7.87699 8.41589 7.86207 8.37811 7.86207C8.34032 7.86207 8.30406 7.87699 8.27721 7.90357L7.08793 9.09286L5.47543 7.48036L6.6665 6.28929C6.72186 6.23393 6.72186 6.14286 6.6665 6.0875L6.0165 5.4375C5.98965 5.41091 5.95339 5.396 5.91561 5.396C5.87782 5.396 5.84156 5.41091 5.81471 5.4375L4.62364 6.62857L3.85579 5.86071C3.84246 5.84737 3.82657 5.83686 3.80908 5.8298C3.79159 5.82274 3.77286 5.81929 3.754 5.81964C3.71829 5.81964 3.68079 5.83393 3.65221 5.86071L1.83436 7.68036C0.604 8.9125 0.459357 10.8179 1.40043 12.2071L0.0415001 13.5661C0.014914 13.5929 0 13.6292 0 13.667C0 13.7048 0.014914 13.741 0.0415001 13.7679L0.798643 14.525C0.827214 14.5536 0.862929 14.5661 0.900429 14.5661C0.937929 14.5661 0.973643 14.5518 1.00221 14.525L2.36114 13.1661C2.96293 13.575 3.66293 13.7786 4.36293 13.7786C5.27721 13.7786 6.1915 13.4304 6.88971 12.7321L8.70936 10.9125C8.76471 10.8571 8.76471 10.7661 8.70936 10.7107L7.9415 9.94286L9.13257 8.75179C9.18793 8.69643 9.18793 8.60536 9.13257 8.55L8.479 7.90357ZM6.029 11.875C5.81045 12.0947 5.55052 12.2689 5.26424 12.3875C4.97797 12.5061 4.67102 12.5668 4.36114 12.5661C3.73079 12.5661 3.13971 12.3214 2.69329 11.875C2.47361 11.6564 2.29943 11.3965 2.18081 11.1102C2.0622 10.824 2.00149 10.517 2.00221 10.2071C2.00221 9.57679 2.24686 8.98571 2.69329 8.53929L3.754 7.47857L7.08971 10.8143L6.029 11.875Z" fill="black" fill-opacity="0.4"/>
</svg>
