<svg width="76" height="16" viewBox="0 0 76 16" fill="none" xmlns="http://www.w3.org/2000/svg">
<path d="M0.957031 15.0334V0.761475H3.87489V6.62879H10.7833V0.761475H13.7012V15.0334H10.7833V9.14621H3.87489V15.0334H0.957031Z" fill="#1976D2"/>
<path d="M16.9274 2.84275V0.464111H19.8453V2.84275H16.9274ZM16.9274 15.0333V4.32941H19.8453V15.0333H16.9274Z" fill="#1976D2"/>
<path d="M23.2065 15.0334V0.761475H29.7288C29.8789 0.761475 30.0792 0.768082 30.3295 0.781296C30.5869 0.787904 30.8158 0.807726 31.016 0.840763C31.9386 0.972908 32.6931 1.25372 33.2795 1.6832C33.8731 2.11267 34.3094 2.65448 34.5883 3.3086C34.8672 3.95612 35.0066 4.67963 35.0066 5.47912C35.0066 6.2786 34.8636 7.00541 34.5775 7.65956C34.2986 8.30708 33.8624 8.84558 33.2688 9.27505C32.6824 9.70453 31.9314 9.98534 31.016 10.1175C30.8158 10.1439 30.5869 10.1637 30.3295 10.177C30.072 10.1902 29.8718 10.1968 29.7288 10.1968H26.1243V15.0334H23.2065ZM26.1243 7.67938H29.6C29.7502 7.67938 29.9147 7.67277 30.0935 7.65956C30.2723 7.64635 30.4368 7.61992 30.5869 7.58027C30.9803 7.48114 31.2842 7.31596 31.4988 7.0847C31.7133 6.84683 31.8599 6.58584 31.9386 6.30173C32.0244 6.01101 32.0673 5.7368 32.0673 5.47912C32.0673 5.22143 32.0244 4.95053 31.9386 4.66641C31.8599 4.37569 31.7133 4.1147 31.4988 3.88344C31.2842 3.64558 30.9803 3.47709 30.5869 3.37798C30.4368 3.33834 30.2723 3.31191 30.0935 3.29869C29.9147 3.28548 29.7502 3.27887 29.6 3.27887H26.1243V7.67938Z" fill="#121212"/>
<path d="M37.1606 15.0333V4.32938H39.7352V6.94589L39.4563 6.60891C39.6065 6.2389 39.8067 5.90193 40.057 5.59799C40.3073 5.29405 40.6148 5.04297 40.9796 4.84475C41.2585 4.68618 41.5624 4.56394 41.8914 4.47805C42.2204 4.38554 42.5601 4.32938 42.9105 4.30956C43.2609 4.28313 43.6114 4.28974 43.9618 4.32938V6.84678C43.64 6.75427 43.2645 6.72454 42.8354 6.75758C42.4135 6.78401 42.0308 6.87321 41.6876 7.02518C41.3443 7.17054 41.0547 7.36545 40.8186 7.60995C40.5826 7.84781 40.4039 8.13193 40.2823 8.46229C40.1607 8.78605 40.0999 9.15276 40.0999 9.56242V15.0333H37.1606Z" fill="#121212"/>
<path d="M46.2169 2.84275V0.464111H49.1347V2.84275H46.2169ZM46.2169 15.0333V4.32941H49.1347V15.0333H46.2169Z" fill="#121212"/>
<path d="M57.4571 15.3306C56.2556 15.3306 55.2257 15.0828 54.3676 14.5872C53.5094 14.0917 52.8514 13.4177 52.3937 12.5654C51.936 11.713 51.7072 10.7517 51.7072 9.68128C51.7072 8.59768 51.9432 7.6297 52.4152 6.77733C52.8943 5.92499 53.5666 5.25434 54.4319 4.7654C55.2973 4.27645 56.3199 4.03198 57.5 4.03198C58.8659 4.03198 60.0102 4.35244 60.9327 4.99335C61.8624 5.62766 62.456 6.49652 62.7135 7.59997L59.7956 8.31356C59.624 7.75855 59.3236 7.32574 58.8945 7.0152C58.4726 6.70465 57.9934 6.54938 57.4571 6.54938C56.842 6.54938 56.3378 6.68813 55.9445 6.96564C55.5511 7.23654 55.2615 7.60988 55.0756 8.08561C54.8896 8.55473 54.7967 9.08662 54.7967 9.68128C54.7967 10.6129 55.0183 11.3695 55.4617 11.9509C55.9123 12.5257 56.5774 12.8132 57.4571 12.8132C58.115 12.8132 58.6156 12.6744 58.9589 12.3969C59.3022 12.1194 59.5596 11.723 59.7313 11.2076L62.7135 11.7824C62.3845 12.9189 61.7623 13.7944 60.8469 14.4088C59.9315 15.0233 58.8016 15.3306 57.4571 15.3306Z" fill="#121212"/>
<path d="M69.9301 15.3306C68.7429 15.3306 67.6952 15.096 66.7869 14.6269C65.8858 14.1512 65.1778 13.5003 64.6629 12.6744C64.1551 11.8419 63.9012 10.8904 63.9012 9.82004C63.9012 8.65054 64.1516 7.63301 64.6522 6.76742C65.1528 5.90186 65.8429 5.23122 66.7226 4.75549C67.6022 4.27315 68.6142 4.03198 69.7584 4.03198C70.9742 4.03198 72.0076 4.29628 72.8586 4.82486C73.7097 5.35345 74.339 6.09678 74.7467 7.05484C75.1543 8.01293 75.2973 9.13948 75.1758 10.4345H72.2901V9.44342C72.2901 8.35321 72.1006 7.57024 71.7215 7.09449C71.3496 6.61215 70.7382 6.37098 69.8871 6.37098C68.8931 6.37098 68.16 6.65179 67.688 7.21342C67.2232 7.76846 66.9907 8.59107 66.9907 9.68128C66.9907 10.679 67.2232 11.4521 67.688 12.0005C68.16 12.5423 68.8502 12.8132 69.7584 12.8132C70.3305 12.8132 70.8204 12.6975 71.2281 12.4663C71.6357 12.235 71.9468 11.9014 72.1614 11.4653L75.0792 12.2383C74.643 13.2162 73.9528 13.9761 73.0088 14.5179C72.072 15.0597 71.0457 15.3306 69.9301 15.3306ZM66.0896 10.4345V8.43249H73.7705V10.4345H66.0896Z" fill="#121212"/>
</svg>
