<svg xmlns="http://www.w3.org/2000/svg" viewBox="0 0 928.02 595.98"><path d="M733.41,91.15a1.74,1.74,0,0,1-.11.18l.13,0Z" fill="#404041"/><path d="M591,41.42a2.73,2.73,0,0,1,.1.81c0,.26-.07.64-.35.74a1.8,1.8,0,0,1-1.26-.19,2.48,2.48,0,0,1-.44-.2c-.17-.12-.32-.22-.48-.35s-.24-.23-.38-.32c-.29-.17-.58-.33-.89-.48a6.38,6.38,0,0,0-.8-.33,2,2,0,0,0-.34-.14,1.62,1.62,0,0,0-.44,0v0l-7.36-4.73V33.47L570.15,29l-.33-4.17,6.61-3.92,6.62,6.35,6.26.06,2,4.19L587,34.75l2.87,4.39A12.41,12.41,0,0,1,591,41.4h0Z" fill="#0082d2"/><path d="M484.77,250.35c-.93-.35-1.54-.24-2.3-1s-.4-1.15.29-1.91.14-1.28-.16-2.18a3.74,3.74,0,0,1-.14-1.78l-2-.32-16.8,3.59-1.48,3.33,1.48,1.51v1.71l3.38-1.43,1.9-1.58,11.11.74,4.14,2a10.33,10.33,0,0,1,.42-1.26C485.78,251.68,485.78,250.72,484.77,250.35Z" fill="#00d7e1"/><path d="M612.23,250.19c-.68-.5-3-1.79-3.09-3.14a9,9,0,0,0-.71-3.33c-.45-.93-2.27-4.33-3.47-5.26s-1.32-1.27-2.45-1.11-2.41,1.11-2.31-.24-.9-2.83-.12-3.73,3.14-3.4,4.17-3.32,2.72,1.48,4-.51,4.17-4.52,4.78-7.4,1.93-4.52.76-4.88-2.11,0-2.06-1.43-.21-2.33,1.12-3,2.56-.71,2.35-2.72-.45-8.83.55-10.89,5.14-6,6-7.8c-.49-.87-.83-1.57-1.05-2-1.35-2.45-8.33-3.41-8.33-3.41s-.63-6-1-8.32c-.07-.42-1-.65-2.52-.74a2.79,2.79,0,0,1-.33.52c-1.33,1.75-4.17,4.1-6.54,3.41-1.07-.31-2-1-3-1.4a4.06,4.06,0,0,0-3,.2,31.57,31.57,0,0,0-2.92,1.82c-.83.5-1.68.91-2.54,1.33s-1.23.87-2.11.89a4.88,4.88,0,0,0-1.23.18,2.63,2.63,0,0,1-2.37-.63,13.1,13.1,0,0,0-1.77-1.8,5.61,5.61,0,0,0-.87-.56c-.31-.16-1-.19-1.2-.49-.45-.63,1-1.56,1.43-1.93a7,7,0,0,1,1.35-1.18c-.08-.71-.17-1.64-.21-2.68l-1.54.17a9.56,9.56,0,0,1-2.56,3.31c-2.08,1.87-4.77,1.69-7.39,1.43-1.43-.13-2.81-.47-4.22-.59a11.66,11.66,0,0,0-4,.49,8.26,8.26,0,0,1-2.24.65c-.72.53-1.3.94-1.53,1.08-.88.53-1.12,4.21-4.24,5.42s1.28,6.68,1.28,6.68c1.87,1.62,1.26,3.5,1.15,5.72a8.26,8.26,0,0,1-2.53,5.44c-1.22,1.06-3.92,5.5-5.24,7.61s-9.14,2.22-11.68,2-2.32,1.27-3.48,2.8-3.23-.63-3.92-1.37-2.06-.53-4.17-.79a9.87,9.87,0,0,0-2.42.12,3,3,0,0,1,.73,1.61c.11,1.1,0,2.23,0,3.32a22.79,22.79,0,0,1-.08,3.41c-.35,2.18-2.48.42-3.39-.4-1.48-1.33-2.65-2.92-4.21-4.15a7,7,0,0,1-2.9-3.77,2.74,2.74,0,0,1-.08-.37c-5.49-1.26-7-4.37-7-4.37l-8,3,.11,8.14-2.49,2.49v1.53l1.78,1.44c.39-.69.52-.39,1.21-.59a10.42,10.42,0,0,0,2.15-1.26,8.37,8.37,0,0,0,3.41-3.34c.39-.77,1.4-2.09,1.91-.69A8.35,8.35,0,0,1,508,224a7,7,0,0,1-1.86,4.34l5.13-.45,3.7,2.44,6.3,6.33-1.85,7.56-1.22,1.21a5.14,5.14,0,0,0,2.67.75,3,3,0,0,0,1.54-.13c.45-.18.82-.57,1.3-.66,1.17-.2,2.23,1.14,3.23,1.58.77.35,1.55.42,2.35.71a4.32,4.32,0,0,0,3.36-.85c.88-.85,1.28-2.11,2.2-2.93,2-1.8,5.26-.12,7.09,1.2,2,1.47,1.82,3.4,2.18,5.65s2.12,4.55.67,6.54c-.37.5-.79.95-1.18,1.39a16.52,16.52,0,0,0,6.17.82c4.68-.32,10.54-.48,10.22,1.59s-1.58,2.85-.71,3.72,1.83,4,3.65,3.41,1.75-2.62,2.94-3.57,7.28-3.89,7.84-3.33,2.1,3.1,3.41,2.58,2.54-1.08,3-1.19,1.26-.12,1.22-1-.39-2.46.87-2.26,2.18-.13,2.46.75,2.49,2.16,1.59,2.88-1.43,1.45-1.12,2.16-.67,1.86,1,1.86,2.5.51,2.66,1.86.63,11.17,3.12,9.48c2.17-1.48,12-8.4,15.5-11.25h0a13.62,13.62,0,0,0,1.15-1c1.43-1.55,5.07-4.51,5-5.61s-.23-2,.35-2.57,2.38-2.12,2.08-3A22.65,22.65,0,0,0,612.23,250.19Zm-10.62-39.14a2.17,2.17,0,0,1,2.6-.94c.35.23.5.71.84,1a4.82,4.82,0,0,1,.82.94c.58,1.1,1.07,2.29,1.74,3.33s.21,2.08-.31,3.13-1.27,2.69-2.45,3.09c-.58.2-1-.09-.92-.69.1-.81.37-1.65.55-2.45a4.39,4.39,0,0,0,.75-2.87c-.29-.89-1-1-1.67-1.55l-.09-.07C602.86,213.4,601.31,212,601.61,211.05Zm-17.44,5.63c-.8.72-2.12-.33-2.61-1s-.82-1.84-1.65-2.31c-.64-.36-1.51-.18-2-.77s-.34-1.44-.76-2c-.77-1.09-2.31-1.82-2.15-3.34a7.86,7.86,0,0,0,.17-3.05,2.36,2.36,0,0,0-.62-1,2.89,2.89,0,0,0-.32-.29,10,10,0,0,1-1.21-1.31c-.11-.12-.14-.12-.08,0l-.18-.13c-.06,0-.24-.18-.34-.27a2.27,2.27,0,0,1-.54-.66,1.81,1.81,0,0,1-.21-.93c.05-.44.23-.36.57-.54a6.29,6.29,0,0,0,2.57-2.76c.59-1,2-.75,2.76-.12a3.17,3.17,0,0,1,1.09,1.89c.12.92-.48,1.62-.64,2.46a3.71,3.71,0,0,0,.73,2.48,5.07,5.07,0,0,1,.85,2.37,24.14,24.14,0,0,0,.22,2.55,13.3,13.3,0,0,0,.54,2.58,8.13,8.13,0,0,0,1.42,2.2,24.2,24.2,0,0,0,1.79,1.87C584,215,584.85,216.06,584.17,216.68Z" fill="#00d7e1"/><path d="M200.68,302.79c-1.71-.44-2.62,1.34-3.77.87s-1.66-1.16-1.66-2.82-.12-5.35,1.34-7,2.55-4.23-.07-4-4.48.75-5.07-.63,1.42-3.05,3.76-3.05,6-1.19,4.88-2.42c-.77-.85-4.37-4-6.58-6-.46.48-.94.93-1.41,1.39-.06,0-.27.24-.33.29h0l-.42.42c-.25.28-.52.63-.8.9-.46.44-1,.79-1.43,1.25-1.1,1.19-2.06,2.4-3.24,3.52s-2.61,1.63-3.81,2.62a24.71,24.71,0,0,1-3.59,2.69c-1.31.72-2.48,1.75-3.81,2.41a6.9,6.9,0,0,0-3.32,2.85c-.63,1.32-1,2.79-1.68,4.1a7.2,7.2,0,0,1-3.31,2.87c-.17.1-.35.18-.52.26,2.66,3.26,6.69,10,7.63,9.26s1.94-2.33,2.93-1.73,3.92,2.68,5.08,1.89,4.28-3.52,4.28-3.52l3.8,3.76,6.26-.35s1.91-4.05,3.46-5.12S202.38,303.22,200.68,302.79Z" fill="#00d2aa"/><polygon points="306.53 115.08 304.25 117.86 296.65 118.5 292.21 120.47 290.27 120 288.67 120.48 286.15 121.23 284.87 117.53 286.85 117.99 299.88 110.47 300.28 109.64 306.53 115.08" fill="#00d2aa"/><polygon points="320.91 100.42 321.82 104.18 320.51 105.45 309.93 107.2 307.31 108.54 302.82 104.29 303.8 102.21 297.33 99.18 300.52 95.67 310.86 99.68 318.09 93.71 318.1 93.71 322.03 94.15 320.91 100.42" fill="#00d2aa"/><path d="M327.91,143.38l-2.14,5.33s-3.47-.16-4.53-.16-1.85,1.38-4.55,2.91-8.34,1-11.41,1.16-4-.79-5.23-1.26a13.54,13.54,0,0,0-5.5-1.22c-1.95.16-5.5-3.7-5.5-3.7s-6.81,6.82-9.25,9.41-4.65,2.8-7.87,3.7-9.89-1.11-11.16-1a5.32,5.32,0,0,1-3.64-1.16c-1.32-.89-6-.89-8.3-.89s-1.21,2.79-1.8,5.23-2.26,2.43-3.38,3.43,1.8,3.23.58,5.23-7.13,2.28-8.4,2.75a4.19,4.19,0,0,1-3.6-.42c-.89-.58-3.27.31-4.75.69s-5.13,7.5-6.61,10-4.39,3.12-6.24,3.75S211,194,211,194s-4-3-4.81-3.65-2.75-.05-4.6.63-1.69,3.28-2.64,4.76-4.18,1.9-6.4,3-3.59-3.54-4.33-4.49c-.42-.54-2.47-.36-4.14-.1l-1.27-4,22.85-18.91V156.9l11-2.57.23-6.79,8.68-.4,2-7.12-5.75-5.08s-17.63,3.91-31.17,2.34l1.22-7.15,11.61-8.9.62-6.53,9.31-6.52-.68-12.82L221.62,92l11.47,5.67s6.86-4.44,7.07-4.44L252.8,98l-3.38,13.55,10,3.63,2.06,6.35,13.09-6.35,10.26,2.38,1.28,3.7,2.52-.75,5.12,2.81,1.87,2.9,1.15,4.51,6,.36,2.29,2.38,12.5.24s4.94,3.3,5.79,4.59.45,3,2,3.86S327.91,143.38,327.91,143.38Z" fill="#0082d2"/><path d="M407.61,114.62l-.21,3L393,125.19s-4.13,4.87-6.87,5.5-7,3.49-8.67,4.92-3.17,2.32-3,4a6.37,6.37,0,0,1-.05,2.32l-8.14-1.63s-1.27-2.86-2.75-3.81-1.79-4.44-3.91-4-15.12,2.22-15.12,2.22-1.79-5-2.58-5.61-.42-7.82-.42-7.82l9-.63s2.11-13.27,3.17-14.28,3.33-1.37,2.85-3.33-.68-2.9-.68-2.9l-6.45-1.86-1.43-4h-1.16s-1.38,5.08-3.44,4.65a24.17,24.17,0,0,1-4.69-1.71l-1,6.38,2,1.11-1.47,8-5.75,1.7-2.23,5-3.33.6-1-1.28-5.47.68-1.23,5.5-6.82,2.59-1.67-2.62-6.93-.2-.93,6.46-6-.36-1.15-4.51-1.87-2.9-5.12-2.81,1.6-.48,1.94.47,4.44-2,7.6-.64,2.28-2.78-6.25-5.44,2.54-5.35,4.49,4.25,2.62-1.34,10.58-1.75,1.31-1.27-.91-3.76L322,94.15l-3.93-.44h0L315,89.6,320.62,87l-2.25-2.66-8-.26.09-4.59,8.49-2.48,3.47-3.28,10.08-.45,7.46-2.2,2.81-4.87,9.74-2,3,5.09.27,6.47-9.49,2.34L345.33,81l11.86,2.3,2.32-1.4,2,3.29,5.56-1.75,6.38,3.65-.79,3.57,3.56,3.6,6.86-6.69v-2.1l1.43-2,6.38,2.38v3.31l7.53,8.66,5.63-.2.59,4.61,1.92,2.21-2.06,6.45Z" fill="#00aae1"/><path d="M530.08,252.27l-3.81,13.31-9.36,3.06a14.55,14.55,0,0,0-3.48,4.6c-.91,2.33.41,3.6.79,4.65s-1.13,8.4-1.21,8.81h0l-9.36.64L499,283l-6.13-.32L491,285.4l2.49,8.4,5.08,9.35,6.65,3.33v5.87l-11.89-4.17-8.56-10.1.85-15.8.95-14.65v-1.21l-5.87-1.27-.43-6.68a4.79,4.79,0,0,0,1.94.15,4.72,4.72,0,0,0,1.27-.72,5.1,5.1,0,0,0,1.31-1,18.29,18.29,0,0,1,2-2.46,4.9,4.9,0,0,0,1.57-2.05c.27-.78.06-2,.61-2.7.29-.35.87-.41,1.21-.7s.58-.69.93-1a5.72,5.72,0,0,0,1.77-2.41,5.45,5.45,0,0,1,1.39-2.68,5,5,0,0,1,1.12-.67l.48,2,8.4.55,1.69-1.58a2.86,2.86,0,0,0,2.28.43c1.34-.41,2.32-1.54,3.86-1.1,1.32.38.48,2.25-.17,2.94a1.27,1.27,0,0,1-1.6.47c-.93-.28-1.25,0-2.21.22a3.81,3.81,0,0,0-2.4,2.62,2.27,2.27,0,0,0,.07,1.68c.2.3.55.33.83.53s.56.52.88.74c1.1.8,2-.12,3.15-.14a6.63,6.63,0,0,1,3.72.89l1.93,1.06a18.09,18.09,0,0,1,1.93,1.3c.78.58,1.09,1.05,2.08.63s1.85-1.46,2.84-2.05a10.25,10.25,0,0,1,2.65-.95,10.94,10.94,0,0,1,3.38-.14A2.7,2.7,0,0,0,530.08,252.27Z" fill="#0082d2"/><path d="M493.28,308.18l-18.18,8.88s-3.7-2.81-3.86-3a39.36,39.36,0,0,0-4.39,2.07L459,312.88l-9.78,2.48-8.66-3.7-3.28-4.7-9.09.53,2.33-5.81v-2.23l-4-6,4.34-10.11V278.9l4.38-7.51,5.66,2.22L450.1,262l-.58-5.34,6.39-3.49,7.78.16,3.38-1.43,1.9-1.58,11.11.74,4.14,2a2.45,2.45,0,0,1-1.8,2.1c-.92.26-1.87.17-2.56.93-.4.42-1.12,1.57-1,2.16a10.83,10.83,0,0,1,1.34.29l.43,6.68,5.87,1.27v1.21l-.95,14.65-.85,15.8Z" fill="#8cd26e"/><path d="M499.84,221.23l-.11-8.14,8-3-1.26-6-5.4.8-12-7-3.7-10.25L479,168.53l-2.53-8.87-9.57-2.76.9,4.87-3.65-.08c0,.14,0,.28,0,.42a11,11,0,0,1-.26,2.22,3.1,3.1,0,0,0-.28,2c.15.52.47,1.67.17,2.19-.55.92-1.16-.95-1.25-1.31-.23-1-.86-1.85-1.12-2.83a5.28,5.28,0,0,1-.16-.66l-.58.75L459,174.19l-4.91.69-3.86-.26-1.27-1.8.05-1.11,3.81-2.17-1.32-1.06-1.06-1.27-5.55.06-1.58,1.79-5-1.31-.8-1.54-.31-2.7-6.93,2L429,166.63l1.58,2.8-10.08,1.33-2.65-8.41-.42-2.17-9.25-.36.21,6.81-6.24,5.76-3.54-2.7-14.08,4.77,0,.1,2.86,8.83,5.28,6.5-.95,6.45.95,4.28,2.54,6-3.06,4.28-1,17.34,6.19,12.11,11.09,1.31-.73,9.1-8,14.85-5.35-.38-3.59,5.29,2.59,2.54-.32,3.23-3.44,5.92,3,4.54-.59,6.76,14.86,9,5.92,8.88.89-1.48,1.75.85,2.7-.21,1.74-2.38,8.3-.74,2.33-5.81v-2.23l-4-6,4.34-10.11V278.9l4.38-7.51,5.66,2.22L450.1,262l-.58-5.34,6.39-3.49,7.78.16V251.6l-1.48-1.51,1.48-3.33,16.8-3.59,2,.32a1.47,1.47,0,0,1,.23-.54c.58-.8,1.56-.6,2.41-.56s1.72.28,2.41-.32a3.76,3.76,0,0,0,1.18-2.68c0-.95-.64-1.65-.78-2.56-.37-2.23-.65-4.42-2.34-6-.5-.47-.91-1-1.42-1.47-.36-.33-1.43-.74-1.22-1.35.8,0,1.56,0,2.34.06,1,.08,1.61-.14,2.27.71.51.63,1,1.31,1.51,2s1,1.51,1.74,1.82a11.19,11.19,0,0,0,2.31.59,2.93,2.93,0,0,0,2.17-.72,5.44,5.44,0,0,0,1.45-1.42c.23-.31.57-.59.77-.92a5.09,5.09,0,0,0,.35-1.13,16.34,16.34,0,0,1,1.25-2.18s0,0,0-.06l-1.78-1.44v-1.53Zm-43.61-15.52c-.17.6-1,.47-1.21,1s.18.92.14,1.37a1,1,0,0,1-1.45.77,4.9,4.9,0,0,1-1.9-1.69,7.4,7.4,0,0,0-2.19-1.51c-.5-.3-1.07-.44-1.58-.73-1.23-.72-2-2-2.94-3a15.11,15.11,0,0,1-2.72-3.49,6.2,6.2,0,0,1-.36-4.52c.13-.56.22-1.53.85-1.77s1.38.43,1.79.82,1,1.14,1.54,1.68a15,15,0,0,0,1.89,1.47,24.92,24.92,0,0,1,3.64,3.17c1,1,2.16,2,3.1,3.14a4.89,4.89,0,0,1,1.07,1.79A4.11,4.11,0,0,1,456.23,205.71Zm15.85-16.19a4,4,0,0,1-1-1.18c-.53-.77-.93-1.6-1.39-2.41a3.89,3.89,0,0,0-.9-2.3c-.45-.62-1.25-1.36-1.39-2.13a8.22,8.22,0,0,1,.08-2.16c0-.5,0-1.74.58-2.05.81-.43,1.52,2,1.72,2.42a13,13,0,0,0,1.69,3.35,10.84,10.84,0,0,1,1.41,3,4.92,4.92,0,0,1,.38,1.16,5.65,5.65,0,0,0,.18,1.35C473.15,189.08,472.73,190,472.08,189.52Z" fill="#0082d2"/><path d="M556.93,193.26a28.52,28.52,0,0,0-4.39,1.54c-1.2.68-2.26-2.41-2.7-3.88s-2.86-1.23-4.84-1.51-1.94-2-1.74-4.52-3.49-5.35-4.64-6.14-3.33-4.21-3.33-4.21-14.87,3.14-17,3.62-3.36.15-4-.72-3.53-.2-5.59.2-5.51-4.52-6.46-6.19c-.21-.38-.58-1.17-1-2.19,0,0-4,4.08-3.06,5.57s2.85,4.91,2,6.71-1.21,2.9-.56,4.49,1.29,5.81,1.61,7.14,1.48,4.43.9,7-1.38,2.17-1,4.71l5.4-.8,1.26,6s1.49,3.11,7,4.37c-.21-1.34.49-2.12,1.54-3,.5-.43,1.26-1,1.4-1.67s-.47-1.13-.95-1.49a5.35,5.35,0,0,1-1.74-1.8,6.63,6.63,0,0,1-.41-2.34c-.14-1.5-1.27-2.51-1.53-4a12.88,12.88,0,0,1,0-2.91,12.4,12.4,0,0,0-.3-4.21c-.35-1.16-.42-2.54.72-3.31.9-.59,2.36-.29,3.34,0,1.2.33,1.92,1.7,2.78,2.51s3,2.07,3,3.55c0,.62-.54,1-.83,1.52a13.37,13.37,0,0,0-.67,1.83,4.85,4.85,0,0,0-.43,1.8,6.79,6.79,0,0,1,0,2c-.31,1.09-1.85,1.73-1.7,2.9a11.78,11.78,0,0,0,1.33,3c.34.83.09,1.73.42,2.56a3.65,3.65,0,0,0,1.46,1.4,12.83,12.83,0,0,1,2.56,2,9.87,9.87,0,0,1,2.42-.12c2.11.26,3.49,0,4.17.79s2.75,2.91,3.92,1.37,1-3,3.48-2.8,10.36.11,11.68-2,4-6.55,5.24-7.61a8.26,8.26,0,0,0,2.53-5.44C558.19,196.76,558.8,194.88,556.93,193.26Zm-8,18c-1.35,1.2-3-1-3.68-2a8.88,8.88,0,0,1-.91-1.43,5,5,0,0,0-.3-.95.6.6,0,0,0-.11-.12c-.63-.76-1.83-.56-2.69-.8A4,4,0,0,1,539,204c-.46-.76-1.19-2-.33-2.65s1.91-.06,2.65.59a4.41,4.41,0,0,0,1.4,1.1c.44.14.8-.09,1.24-.1a4.51,4.51,0,0,1,2.49,1.22,15.8,15.8,0,0,1,2.3,2.6C549.57,207.94,550.14,210.11,548.93,211.21Z" fill="#00d2aa"/><path d="M506.39,145.19c-1.11,3.31-2.06,8.9-3.64,9.37s-6.79.52-5.95,3.22c.64,2.07,2.95,8.07,4.41,11.48,0,0-4,4.08-3.06,5.57s2.85,4.91,2,6.71-1.21,2.9-.56,4.49,1.29,5.81,1.61,7.14,1.48,4.43.9,7-1.38,2.17-1,4.71l-12-7-3.7-10.25L479,168.53l-2.53-8.87-9.57-2.76.9,4.87-3.65-.08a5.39,5.39,0,0,0-.88-3.15,15.5,15.5,0,0,1-1.72-4.17c-.39-1.53.22-3.35-.69-4.69-.42-.62-3.4-2.72-3.4-.89a12.49,12.49,0,0,0,.61,2.23,5.32,5.32,0,0,1,0,2.14c-.2,1.39-.49,3.13.39,4.36.38.53.92.95,1.31,1.5a7.12,7.12,0,0,1,1.08,2.64c.15.69.22,1.4.36,2.1l-.58.75L459,174.19l-4.91.69-3.86-.26-1.27-1.8.05-1.11,3.81-2.17-1.32-1.06-1.06-1.27-5.55.06-1.58,1.79-5-1.31-.8-1.54-.31-2.7-6.93,2L429,166.63l1.58,2.8-10.08,1.33-2.65-8.41-.42-2.17-9.25-.36.21,6.81-6.24,5.76-3.54-2.7-14.08,4.77-2-10.42s3.29-5.55,4.72-7.93,2.69-5.12,4.87-5.92,5.59-5.07,5.71-7.76c0,0,16.59,3.8,18.12.15s2.33-5.86,3.49-7.19,3.7-6.13,2.53-7.66-3.85-5.6-6.28-6.56-4.13-2.58-4.13-3.85-.63-2.75.27-3.33,1.53-.72.68-2.47-2.85-7.26-2.85-7.26l-3.17.16-1.92-2.21L404,97.6l-5.63.2-7.53-8.66V85.83l-6.38-2.38-1.43,2v2.1l-6.86,6.69-3.56-3.6.79-3.57-6.38-3.65L361.5,85.2l-2-3.29,4.61-2.79,9.09-1.4,3.72-2.47,2.35-5.44,14.21-1.89L398,72,401.19,78,425,77.33l4.14-3.06,5.8-1.36,3.39-6.06,4.49.17,12.24-10.21,5.12.94,1.72,3.7,4.54-3.11L476,60l2.15,4.91L483,70.3l9.85.46,5.31-2.66,3,2.79,1.2-.09-.41,5.43L492.47,88.8l-2.86.34.53,10.84,5.31,13-4.91,9.68s-.24,1,1.46,1,4.25.6,4.21,2.35,2,10.3,2.41,11.25,2,8.28,3,7.93S507.5,141.86,506.39,145.19Z" fill="#8cd26e"/><path d="M559,22l3.55,6.25-10.74.18-3.21,6.28a12.78,12.78,0,0,0-10.2,6.41c-.29.05-8.1,3-8.1,3l-2.25-2.48-2.74.37-4.23,6.79-10,.9-5.27-5.14-7.06-1.84-2-9.85,9.43-7.15,6.12-13.32L521.1,11l6.75-6.21.32-3.6L536.44,0,541,3.37l-.1,8.63,2.92,3.12L545.8,11V3.64l7.37,3.06v6.44s2.94-1.41,3.06-1.41,7.65,3.79,7.65,3.79Z" fill="#0082d2"/><path d="M532.68,68.47a3.68,3.68,0,0,0-2.15,3.33c.12,1.43.4,5.55-2.73,5.11s-2.26-6.75-4.48-7.69l8.07-8.94,2.1,2.93C533.52,65.16,533.44,68.1,532.68,68.47Z" fill="#8cd26e"/><path d="M609.7,129.16s-1.75-4.76-3.53-5.47-4.13-2.74-4.28-5.16.08-4.64,1-6,1.26-2.7-.8-3-5.35-3.57-5.55-5.48-2.49-6.42-1.38-7.17,3.48-2.14,3.33-4.48a11.62,11.62,0,0,0-7-9.91c-5.67-2.58-9.83-4.56-7.77-6.42s3.57-7.26-3.92-8.56-11.89-4.41-14-7.61-1.38-5.08,2.46-4.8,3.84.16,5.15,1.47,3.53,2.81,5.12.91,4.8-6.91,3.69-9.24-2.06-6.42-5.82-6.11-2,4.71-4.71,5-9.51,2.53-14.53-.11-6-6.61-6.82-8.56a8.56,8.56,0,0,1-.6-3.23l-1.13-.42,0-.06a12.78,12.78,0,0,0-10.2,6.41h0c.14,0,4.19,6.57,4.19,6.57l-1.71,2.65-3.43-3.83-1.93,1L537,51.41l-.32,9.18-3,2.92-.21-.3c0,1.95,0,4.89-.81,5.26a3.68,3.68,0,0,0-2.15,3.32c.12,1.44.4,5.56-2.73,5.12s-2.26-6.75-4.48-7.69l8.06-8.94L527.58,55l-6-2-3.74,4.89-9.17,4.28-1,3.52,6.42.54.68,3.64-12.43.94-.41,5.44L492.47,88.8l-2.86.34.53,10.84,5.31,13-4.91,9.68s-.24,1,1.46,1,4.25.6,4.21,2.35,2,10.3,2.41,11.25,2,8.28,3,7.93,5.87-3.3,4.76,0-2.07,8.9-3.64,9.37-6.79.52-5.95,3.22c.64,2.07,2.95,8.07,4.41,11.48.44,1,.8,1.81,1,2.19.95,1.67,4.4,6.58,6.46,6.19s5-1.07,5.59-.2,1.86,1.19,4,.72,17-3.62,17-3.62,2.18,3.42,3.33,4.21,4.83,3.65,4.64,6.14-.24,4.24,1.74,4.52,4.4.05,4.84,1.51,1.5,4.56,2.7,3.89a27.79,27.79,0,0,1,4.39-1.55s-4.39-5.46-1.28-6.68,3.36-4.88,4.24-5.42c.23-.14.81-.55,1.53-1.08a1.14,1.14,0,0,1-.86-.34,6.5,6.5,0,0,0-1-.79,9.53,9.53,0,0,1-1.8-1.79l-1.55-1.86a25.14,25.14,0,0,0-1.75-2.07c-.65-.61-1.43-.95-2.09-1.52s-1.3-1-1.94-1.54-1.33-1.33-2-1.93a4.07,4.07,0,0,0-2.26-.64c-1.76-.2-3.33-.26-4.86-1.3-.61-.41-1.36-.57-2-1a17.88,17.88,0,0,1-1.58-1.3,6.2,6.2,0,0,1-2.38-3,13.83,13.83,0,0,1-.34-2.19,3.46,3.46,0,0,0-1-2c-.87-1.16-1.9-2.22-2.75-3.41a6.45,6.45,0,0,1-1-3.93,8.75,8.75,0,0,0-1.09-3.89c-.66-1.06-1.57-2-2.28-3a9.37,9.37,0,0,1-2-5.64c0-.68,0-2.32,1-2.22s2.31,1.73,3,2.53a19.06,19.06,0,0,1,3.59,6.49,19.39,19.39,0,0,0,1.73,3.83c.92,1.53,1.66,3.15,2.65,4.65a10.15,10.15,0,0,1,2.66,3.17c.59,1.26.74,2.72,1.34,4a5.13,5.13,0,0,0,3.17,2.53,14,14,0,0,1,2.3,1,6.16,6.16,0,0,0,1.93.63v0a20,20,0,0,0,2.75.88,8.84,8.84,0,0,1,1.62.36c.44.19.86.37,1.29.59a32.17,32.17,0,0,1,4.93,2.9c.67.48,1.42.82,2.09,1.28s1.23,1,1.91,1.46a17.16,17.16,0,0,0,8.64,2.26,15.24,15.24,0,0,0,3.76-.36,20.5,20.5,0,0,1,4.66-.81c1.27,0,2.4.56,2,2,0,.18-.12.37-.19.55l1.54-.18c0-.31,0-.63,0-1,0-3-3.88-4.85-3.88-4.85a9.57,9.57,0,0,1,5.54-1.1l4.45,3.33,6.74-5.47,4.75,2.06,6-3.41,2.7-11.26s5.54.32,6.1-4.52S609.7,129.16,609.7,129.16ZM560,144.54c-.28.34-.63,1-1.14.92s-.84-1.16-1-1.63a13.75,13.75,0,0,1-.78-1.34,5.62,5.62,0,0,0-1.15-2c-.71-.82-1.47-1.52-2.22-2.29a27.86,27.86,0,0,1-1.93-2.25,7.62,7.62,0,0,1-1.08-2.37,13.65,13.65,0,0,1-.29-1.47.83.83,0,0,1,0-.66c.09-.2.28-.35.39-.54,1.52-.73,3,.45,3.89,1.59.47.61.8,1.31,1.31,1.89a5.68,5.68,0,0,1,1.24,1.69c.25.7-.07,1.26-.09,1.94a1.91,1.91,0,0,0,1.05,1.56c1,.71,2.49,1.31,2.66,2.72A2.92,2.92,0,0,1,560,144.54Zm16.58-4.5c-.6-.16-1.34.07-1.88-.32s-.41-1.13-.32-1.72a2.52,2.52,0,0,0-.43-2c-.4-.57-1-1.2-.78-2,.37-1.67,2.31-1.18,3.19-.31a8,8,0,0,1,2.07,2.9,8.74,8.74,0,0,1,.41,2.25C578.91,140.31,577.58,140.29,576.59,140Z" fill="#00aae1"/><path d="M709.29,89.27l-4.22,2.09-9.91,2h-3.33L691.12,91s2.14-2.24,1.27-3-3.26,0-3.26,0L686,89.14,684.54,86l2.53-1.83-2.13-3.33h-4.76l-5.95,3.89.48,2.77,3.57-2L680,87.93,678,89.14l.4,1.25h2.78v1.83l-5.71,4-2.29-1.66L667,98.07l-1.74-1.57s.4-4.28-1.74-3.81-2.46,1-2.46,1l-1.27-1.83-3.33,1.75L654,91.74s1.43-2.62,0-3.17-4.12.23-4.75,1.58S646,95.46,646,95.46l-9.27-.23-1.43-2.86-13.56,2.06,2.31,8.25,2.37,4.67-1.74,3.42h-6l-3.25,8.87s-2.69,1.12-2.93,2.55,1.27,3.72,0,4.75-2.77,2.22-2.77,2.22-1.75-4.76-3.53-5.47-4.13-2.74-4.28-5.16.08-4.64,1-6,1.26-2.7-.8-3-5.35-3.57-5.55-5.48-2.49-6.42-1.38-7.17,3.48-2.14,3.33-4.48a11.62,11.62,0,0,0-7-9.91c-5.67-2.58-9.83-4.56-7.77-6.42s3.57-7.26-3.92-8.56-11.89-4.41-14-7.61-1.38-5.08,2.46-4.8,3.84.16,5.15,1.47,3.53,2.81,5.12.91,4.8-6.91,3.69-9.24-2.06-6.42-5.82-6.11-2,4.71-4.71,5-9.51,2.53-14.53-.11-6-6.61-6.82-8.56a8.56,8.56,0,0,1-.6-3.23l2.79,1,3.28-2.46,4.41,1s-.13-4.09,0-4.09l2.79,0,1.57,3.6,3.6.72,10.24,3.56V36.25L585.75,41c0,.05-.06.08-.08.13a.75.75,0,0,0,0,.21c0,.13.11.21.15.33h0c0,.06.07.14.1.19l.17.23a2.85,2.85,0,0,0,.31.38,1.64,1.64,0,0,0,.4.34c.13.07.23.19.36.27a.86.86,0,0,0,.32.1,1.59,1.59,0,0,1,.67.42,5.89,5.89,0,0,0,1.4.63,37.69,37.69,0,0,0,4.8,2.06,21,21,0,0,0,5.74.77,11,11,0,0,0,3.15-.09c.85-.25,1.82-.28,2.65-.61,0,0-.28,0-.15-.08a3.59,3.59,0,0,1,.62-.31,5.81,5.81,0,0,1,1.35-.34,17.23,17.23,0,0,0,2.08-.46,8.05,8.05,0,0,0,2.81-1.54c.77-.57,1.62-1,2.41-1.57.56-.38,1-.88,1.56-1.3a8,8,0,0,1,2.16-1.08,26.21,26.21,0,0,1,3.21-.72,19.26,19.26,0,0,1,2.82-.29,6.72,6.72,0,0,1,3.27.23c.47.17.81.58,1.25.76,1.11.47,2.64,0,3.84.33a6.86,6.86,0,0,1,1.89.84c.57.31,1.23.44,1.81.7a18,18,0,0,0,2.84.88,5.9,5.9,0,0,0,2.19.48,6,6,0,0,1,2.45.09c.16,0-.21.18-.13.21.38.16.76.3,1.13.47a5.86,5.86,0,0,0,1.6.45,2.74,2.74,0,0,0,1.55-.43c.5-.36.58-1.08,1-1.48a1.78,1.78,0,0,1,1-.35h0a6.41,6.41,0,0,1,.7-.06,17.36,17.36,0,0,1,4.38,0c.71.15,1.56.36,1.37,1.25,0,0,0,0,0,0-.16.66-1.1,1-1.19,1.62s.91,1.44,1.31,1.72c.12.08,0-.21,0-.2a4.19,4.19,0,0,1,.43.25c.28.18.49.29.78.45.44.2,1,.37,1.49.58.92.42,1.39,1.64,2.36,2a9.31,9.31,0,0,0,1.68.1c.62,0,1.27,0,1.88.09a7.28,7.28,0,0,1,3.28,1.9c.88.82,1.44,1.67,2.71,1.89a16.78,16.78,0,0,0,1.71.25,6.12,6.12,0,0,1,1.51.4,12.33,12.33,0,0,1,1.45.37,11.41,11.41,0,0,1,1.4,1c1.06.69,2.07,1.48,3.08,2.23a15.91,15.91,0,0,1,2.51,2.55,30.73,30.73,0,0,0,3.39,3.36,4.24,4.24,0,0,1,2.4.83,16.58,16.58,0,0,0,2,1.11c.64.34,1.35.57,2,.9a7.51,7.51,0,0,1,1.64,1.38,7,7,0,0,1,2.35,3.19,10.09,10.09,0,0,1,0,3.91c-.27,1.82.53,4.61,2.13,5.6a32.06,32.06,0,0,1,3.3,2.14A53.94,53.94,0,0,1,707.2,87,24.64,24.64,0,0,1,709.29,89.27Z" fill="#00d7e1"/><path d="M751.72,111.73l.76-9-11.65-6.47c-.57-.17-.91-.7-1.39-1a6.87,6.87,0,0,1-1.5-1.09c-1.07-1.1-2-4-3.84-3.67-.48.07-.53.3-.69.64l0,.17-.13,0a11.54,11.54,0,0,1-2.8,2.9,8.66,8.66,0,0,1-1.78,1.43c-.56.23-1.21.4-1.8.61a13.51,13.51,0,0,1-4.62.86,12,12,0,0,1-4.22-.78,10.09,10.09,0,0,1-2.75-1.52c-1.14-1-2.12-2.18-3.32-3.18a14.05,14.05,0,0,1-2.72-2.39l-4.22,2.09-9.91,2h-3.33L691.12,91s2.14-2.24,1.27-3-3.26,0-3.26,0L686,89.14,684.54,86l2.53-1.83-2.13-3.33h-4.76l-5.95,3.89.48,2.77,3.57-2L680,87.93,678,89.14l.4,1.25h2.78v1.83l-5.71,4-2.29-1.66L667,98.07l-1.74-1.57s.4-4.28-1.74-3.81-2.46,1-2.46,1l-1.27-1.83-3.33,1.75L654,91.74s1.43-2.62,0-3.17-4.12.23-4.75,1.58S646,95.46,646,95.46l-9.27-.23-1.43-2.86-13.56,2.06,2.31,8.25,2.37,4.67-1.74,3.42h-6l-3.25,8.87s-2.69,1.12-2.93,2.55,1.27,3.72,0,4.75-2.77,2.22-2.77,2.22,6.66,14.43,6.1,19.26-6.1,4.52-6.1,4.52L607,164.2l-6,3.41-4.75-2.06L589.48,171,585,167.69a9.57,9.57,0,0,0-5.54,1.1s3.88,1.83,3.88,4.85c0,.34,0,.66,0,1,0,1,.13,2,.21,2.69a2,2,0,0,1,.84-.26,3.4,3.4,0,0,1,1.26.28,10.06,10.06,0,0,0,1.54.24,4.39,4.39,0,0,0,2.91-.8,5.52,5.52,0,0,1,2.63-.87c1.7,0,3.4.23,5.09.29a10.62,10.62,0,0,0,4-.31c1.22-.39,2.34-1.06,3.59-1.34,1.86-.41,4.34.47,3.33,2.41,1.51.09,2.45.32,2.52.74.4,2.29,1,8.33,1,8.33s7,.94,8.33,3.4c.22.41.56,1.11,1,2,2.29,4.11,7.82,12.1,19.58,11.58,0-.2.07-.43.38-.7.55-.48,1.27-.73,1.82-1.22a3.64,3.64,0,0,1,1.79-.85,4.6,4.6,0,0,1,2-.13c.81.2,1.58.56,2.42.72,1.64.34,3.2.57,4.86.75a17.41,17.41,0,0,1,3.66.55,21.32,21.32,0,0,0,2.39.89,16.78,16.78,0,0,0,5.88.74,29.35,29.35,0,0,1,4.84-.59c1.6.08,3.15.61,4.76.61a14.7,14.7,0,0,0,4.08-1,1.36,1.36,0,0,1,1.91,1.37,3.34,3.34,0,0,1-2,3.29c-1.59.58-3.4-.06-5-.37a10.36,10.36,0,0,0-4.7.07,17.58,17.58,0,0,1-8.21.38h.07a.52.52,0,0,0-.13-.05c-.29-.07-.5-.05-.74-.11a8.08,8.08,0,0,1-1-.29c-.62-.16-1.24-.35-1.86-.52l-.46-.12a7.7,7.7,0,0,1,1.29,4.5s2.51,10.54-.83,12.37-9.43,3.73-8,5.86,4,4.2,8.64,3.65,6.42-1.19,7.53.55,5.31,4.92,5.63,10.31,1.5,8.88-.08,10-2.93,3.65-1.74,4.36,3.32,2.14,3,3.65a11.25,11.25,0,0,0,0,3.4c.35,2.54,1.52,5.45,4.75,5.4,5.16-.08,18.79.47,21.33,2s13.87,7.77,15.23,6.27,4-3,4.43-8.41,1.59-9.28,3.09-11,5.24-9.52,7.46-9.83,3.72-2.7,2.38-5.32-10.63-13-11.37-19.5l-.15,0-.36-4.23,6.75-6.75s-.27-8.45-.63-11a24,24,0,0,0-4-10.07c-2.79-4.32.54-17.36,1.27-22.94s8.67-17.23,10-19.3,1.22-2.25,4.37-3.87,3.86-5.35,5.12-9.57,5.09-6.93,10.62-11.34S751.72,111.73,751.72,111.73Zm-11.93-1.18-2.58,2.59,1.48,3.06-1.27.9-5,3.71-2.22-.43-8.14,2.49-1.42,3,1.1,9.67,2,5.76-2.65,12.05-9.19,10.46-12.95,6.83-9.25-3.76-3.85,1.95-9.57-8.66L673,162.25,661.47,159l-.32-1.63,5.5-4.71-3.76-3.33v-5.13l3.44-3.12s-6.72-4.39-7-4.28,5.87-10.46,5.87-10.46l1.48-6,8.45-.74,4.18,2H689.8l5.39-4.17,4,2.8,6.34-3.54.64-1.22L705,113.08l.37-1s2.27-.79,2.44-.79,2.47,1.43,2.47,1.43l2.91-.59,3.91-4.81,7.93-2.32.42-2.06,4.44-1,9.31,3.71-.38,2,.95.6Z" fill="#00d2aa"/><path d="M739.22,105.59l-.38,2-1-.62-4.44,3,.32,2.8,2.17.26v1.54l1.53,2.53-5,3.71-2.22-.43v-1.74h2.38l.79-1.16-.53-1.85h-3.43v-2.38l-1.22-1.17-3.7,2.07-2.43,8.72-1.42,3,1.1,9.67-9.25.27-9.14-7-5.18-.69L696,125.57l-5.24.52s1,3.49,1.54,5.4c0,0-1.22,1.95-3,7.76a3.14,3.14,0,0,0-3.23,2.38l-3.85,1.54a17.17,17.17,0,0,1-1.06,7s4.91,1.59,5.6,6.4,1.22,1.43,1.75,4.76a42.5,42.5,0,0,0,1.21,5.54l-3.86,2-9.56-8.67L673,162.25,661.47,159l-.32-1.64,5.5-4.7-3.76-3.33v-5.13l3.44-3.12s-6.72-4.38-7-4.28,5.87-10.46,5.87-10.46l1.48-6,8.45-.74,4.18,2H689.8l5.39-4.17,4,2.8,6.34-3.54.64-1.21L705,113.09l.37-1.06s2.27-.79,2.44-.79,2.47,1.43,2.47,1.43l2.91-.59,3.91-4.81,7.93-2.32.42-2.06,4.44-1Z" fill="#00d7e1"/><path d="M508.88,323.82c-.88-2.38.41-5.47,1.48-6.23s-1.27-4.38-1.27-4.38l-.63.25-3.29-1.11-11.89-4.17-18.18,8.88s-3.7-2.81-3.86-3a39.36,39.36,0,0,0-4.39,2.07L459,312.88l-9.78,2.48-8.66-3.7-3.28-4.7-9.09.53-8.3.74-1.74,2.38-2.7.21-1.75-.85-.89,1.48-5.92-8.88-14.86-9,.59-6.76-3-4.54,3.44-5.92.32-3.23-2.59-2.54,3.59-5.29,5.35.38,8-14.85.73-9.1-11.09-1.31-6.19-12.11,1-17.34,3.06-4.28-2.54-6-.95-4.28.95-6.45-5.28-6.5-2.86-8.83,0-.1-2-10.42s-2.89,0-4.56-.12-2.81,3.29-2.81,3.29l-4.09-.23-.71-2.47.71-2-2.53-.43-2.81,3.73-4.88-1.43-9.43-8.88-10.11,3.92-8.41.95.32,1.52.67,2.8s.4,4.21.68,5.55a4,4,0,0,0,2.57,2.54c1,.43.92.4,1.39,1a6.68,6.68,0,0,0,3.61,2.38c2.38.79,2.85,7.64,2.85,7.64l5.43,1.11.44,5.47-3.69,2.82-1.78,4.2-9.31,1-4.25-4.79-8.32.9-2.78,2.78-1.26,9.12-11.15,4.32.84,7.29-.6.76-5.39,2.37-1.15-.35.68-5.19-2.46-1.71-6.86,2.9-5.39-8.49,2.7-2.1,9.07,3,1.39-2.26-1.47-1.31L299,202a58.87,58.87,0,0,0,5.19-4.52c1.39-1.55,5-1.23,7.62-1.07s3-.6,2.41-4-5.22-4.09-6.3-4.09a11.26,11.26,0,0,0-5.51,2c-1.35,1.19-7.86,3.83-7.86,3.83l-5.08-9.23h-4l-3.57-6.4a60.72,60.72,0,0,0,7.37-2.8,86.74,86.74,0,0,0,8.51-5.28l1.06-3.76,9.49-3.09,4.2-6.15,10-3.07,1.54-1.4,1.7-4.26s-3.47-.16-4.53-.16-1.85,1.38-4.55,2.91-8.34,1-11.41,1.16-4-.79-5.23-1.26a13.54,13.54,0,0,0-5.5-1.22c-1.95.16-5.5-3.7-5.5-3.7s-6.81,6.82-9.25,9.41-4.65,2.8-7.87,3.7-9.89-1.11-11.16-1a5.32,5.32,0,0,1-3.64-1.16c-1.32-.89-6-.89-8.3-.89s-1.21,2.79-1.8,5.23-2.26,2.43-3.38,3.43,1.8,3.23.58,5.23-7.13,2.28-8.4,2.75a4.19,4.19,0,0,1-3.6-.42c-.89-.58-3.27.31-4.75.69s-5.13,7.5-6.61,10-4.39,3.12-6.24,3.75S211,194,211,194s-4-3-4.81-3.65-2.75-.05-4.6.63-1.69,3.28-2.64,4.76-4.18,1.9-6.4,3-3.59-3.54-4.33-4.49c-.42-.54-2.47-.36-4.14-.1l.76,2.41-.19.09c5.56,2.57,6.54,7,6.69,10.18.15,3.49-3.49,10.78-3.49,10.78l2.59,2.49,6.71-6.56,11.63-1.26.79-2,12.21-3,.58,1.16-2.34,5.5,3.18,3.91,3-3.28,4.92,3.7-2.28,4.23,5.13,4,.41-.36a25.43,25.43,0,0,0,2.44-2.64,4.63,4.63,0,0,1,2.43-1.49,15.21,15.21,0,0,0,3.91-2.64c1.74-1.43,4-1.82,5.78-3.23,2-1.62,3.33-4.13,5.07-6a46,46,0,0,1,3.25-3.3c.72-.65,1.82-1.8,2.87-1.87s1.23,1,1.1,1.9a14.81,14.81,0,0,1-2.52,5.89c-1.7,2.38-3.82,4.26-4.38,7.31a4.24,4.24,0,0,1-.75,2.2c-1.65,2.11-3.61,3.63-4.54,6.27-1,1-2.14,2.26-3.46,2.75s-3,.35-4.36.8a16.45,16.45,0,0,0-2.54,1.47c-.78.42-2.29,1.13-3.16.57s-.15-1.52.45-2c1.69-1.45,3.68-1.69,5.06-3.56s3.1-4.19,2.74-6.79c-.56-.08-1,.56-1.31,1a.13.13,0,0,1,0-.06c-1.11,1.5-2.2,3-3.35,4.49-1.8,2.31-4.29,3-7,4,.21.16-.89.17-1.22.15-.51,0-1,0-1.31-.49a1.11,1.11,0,0,1-.18-.92A15.57,15.57,0,0,0,220,244.79a4.35,4.35,0,0,1,.74.46,4.8,4.8,0,0,1,1.14,1.33,2,2,0,0,1,2.16,1.45c.17.73.66,2.76,1.23,5.14l9.26-1.76,4.87-1.35,3-.35,6-3.06L256,241.3l5.59,5.94-5.12,6.95-.55,3.92-3,2.18,3.33,3.53.59,3.69,2.18-.56-7,6.74,1.78,2.3,5.63-1.2,6.22.45s3.61,4.31,7.41,3.84,8.25-3.84,11.18-1.79,3.81,1.95,3.65,4.76.28,5.16-.75,6.66-2.46,4.52-3.29,3.49-.83-3.69-.83-3.69l-3.89-2-1.63,4.16s5.35,2.29,4.88,5-2.81,2.81-2.89,5.43-1.39,6-1.55,7.14-.68,2.77-1.63,3.36-2,1-1.54,2.5,3.29,6.11,2.18,8-1.5,2.66-1.14,4a25.51,25.51,0,0,0,1.1,3s9.87,2.66,9.71,3.42a2.93,2.93,0,0,0,1.71,2.89c1.39.64,3.13.79,2.65,3.65s-.23,10-1.26,10.46-1.64,2.15-2.66,1.39-2-2-3.37-1.86-3.34,0-3.37,1.46,1.63,4.21,0,4.88-3.28,1-3.2,2.46a6,6,0,0,0,1.11,3.84c.91,1.07,2.45,2,1.78,3.09s-1.38,6.5-3.29,6.3-5.08-.83-6.1,1.2-6.11,7.45-10.67,9.63l3.49,3.38s1.06,9-.21,10.31a8,8,0,0,0-2.85,5.34c-.16,2.54,0,11.57-2.23,12s-6.23,1.27-4.54,4.87,1.85,5.76,1,7.55-1.63,5.61.43,8.2,3.49,4.91,3.33,6.81-.31,7.88-.31,7.88l4.63-.69,1.54-1.11,3.41-.91.56-2.46-.36-3.45,4.25-3.57h5.59l.5,6.1s11.59-3.72,11.62-3.84,1.51-2.76,1.51-2.76,10.78-3.38,10.89-3.38,3.14-1.82,3.14-1.82h4.4l4.44,1.87,14.12-2.47V427h-6.82L320,424.6l3.41-2.3,4.2-.43,5-1.86,3.49,1.89,8-10.42,5.66,3.92,4.69,1,6.22,3.05,10.39-6,8.09-4.2s7.41-8.36,7.53-8.36h6.06l4.12-1.27a4.24,4.24,0,0,1,2.7-1.39c2-.39,5.47-1.67,6.14-2.86a3.88,3.88,0,0,1,2.66-1.82c1-.28,2,.28,2.78-1.46s3.36-5.28,2.69-5.95-2.26-2.66-.75-3.8,9.63-7.69,9.63-7.69,4.95,3.48,9.23,3.64,6.94.31,6.94.31l6.9,6s13.28-.63,14.27.83,2.85,4,5.63,2.9,17.2-7.65,17.2-7.65,9.83-6.46,10.78-11.07,3.86-16.76,3.86-16.76l4-6.44-1.7-4.83,2.95-4.47,5.27.32,3.24-3.28S509.74,326.2,508.88,323.82Zm-125,21.83c-3.59.43-7.08-.42-8.51.58s-3,2.43-5.44,1.06-6.24-3.54-8.14-4.81-5.39-5.13-6.61-5.29-2.53-.21-3.27-1.27-1.37-2.43-2.59-2.64-1.43.16-1.9-1.11.42-1.69-.64-2.27-4.55-2-3.12-3.17,2.75-1,1.9-2.44-1.68-4,.43-2.27a67.88,67.88,0,0,1,5.87,5.13,13.51,13.51,0,0,0,7.93,5.6c4.63,1.06,4.06,2.86,5.6,4.55s1.64,4.41,6.6,3.81,6.67-1.36,8.67,0S387.47,345.23,383.87,345.65Zm45.78-24.73c-1.21,2.53-4.86.42-8.09,3.69S408.87,335,408.87,335s-2.32,1.85-3.11,1.85-2.17.32-2.33.85-2,1.42-3.75,1.32-5.18-1.05-2.54-2,3.23-1.17,4.49-2.92,6.66-4.43,8.62-7.24,5.44-7.3,8.3-7.66S430.86,318.37,429.65,320.92Z" fill="#00d7e1"/><path d="M234,226.54a2,2,0,0,1-.71.45,2.72,2.72,0,0,1-.76,0c-.82.67-2.79,1.72-3,2.9A15.57,15.57,0,0,0,220,244.79a7.36,7.36,0,0,0-3-.53,19.25,19.25,0,0,1-4.6-.63c-1.31-.37-2.88-1.09-4.26-.65s-2.12,2.1-2.71,3.35c-1.77,1.93-3.17,4.16-6,3.89-.71-.06-1.42,0-2.13,0a4.53,4.53,0,0,0-3.12,1.24c-1,.89-2.35,1-3.32,1.91a4.5,4.5,0,0,0-1.72,3.08,5.74,5.74,0,0,1-.25,1.79,18.43,18.43,0,0,1-1.28,1.7c0,.1,0,.12.14.09-1.8,1.44-3.61,2.2-4,4.58-.16,1-.07,2.17-1.18,2.49-.82.26-1.76-.13-2.6,0-3.07.45-5.38,3.42-7,6-1.43,1.7-3.29,4.38-5.67,4.7-1.16.16-1.63.68-2.05,1.89s0,2.27-.07,3.52a4,4,0,0,1-.43,1.57c-4.2-1.27-4.36-3.94-4.25-5.95.13-2.37-2.3-4.1-3.07-5s-.5-2.73.37-5.19-.87-3.22-1.8-4.09-3.72,1.72-8,3.43-5,2.17-6.9,5.26-10.05,4.15-11.71,5-10.79,9.07-15,10.47c-2,.68-5.77.41-9.11,0l.61-16.64L100.67,264l9.84-11.6,4.82.85,26.63-10,3.33-7.56,12.86-5-3.77-11.56,9-4.14.31-7.19,21-11.2c5.56,2.57,6.54,7,6.69,10.18.15,3.49-3.49,10.78-3.49,10.78l2.59,2.49,6.71-6.56,11.63-1.26.79-2,12.21-3,.58,1.16-2.34,5.5,3.18,3.91,3-3.28,4.92,3.7-2.28,4.23Z" fill="#00aae1"/><path d="M263.47,385.29,260,381.91s-1.68,3.28-2.9,5.34-2.44-3-2.91-4.18-6,3.65-8.94,5.5-4.43,5.87-6.12,8.66-4.6,2.44-8.72,2.7-6.93,4-8.94,5.13-2.9,2.22-3.64,5.65-4.76,3.23-6.61,4.18-.63-5-.37-7.51-.85-4.44-2-8.51-13.63-4.6-18.13-4.91-4,3.6-6.66,4.12-4-5.76-3.8-7.24-1.21-1.48-2.85-2-.32-4.91-.32-4.91l2.17.42,2.26-2.38s2.76,4.23,4.29,4.71,2-1.75,1.8-3.39,7.34-7.39,7.34-7.39l-9.25-.75-2.43-2.43-1.9,0-2.65-1.22-6.07,2.62L171.43,354l2.54-4,7.76-3.81c2.38,3.81,4.05,3,5.23,2.46s-.39-8.41-.39-8.41l1.27-1.34,3.09-.39,12.21-17.05-5.55-1,6-9.68,5.55-5-.95-1.42-1.9,1.42-.87-2.52L207.5,298h4.68l1.66-2.62-4-8.4,2.14-2.86-2.3-5.78-2.46.79-3.8,2.77-4.18-7.5-.08,0a1.93,1.93,0,0,1-1.16-.26c-.34-.12-.55-.5-1-.33s-1.34,1.49-1.79,2.06-1.11,1.29-1.71,1.89c2.21,2,5.81,5.18,6.58,6,1.11,1.23-2.55,2.42-4.88,2.42s-4.36,1.66-3.76,3.05,2.45.91,5.07.63,1.54,2.3.07,4-1.34,5.35-1.34,7,.51,2.35,1.66,2.82,2.06-1.31,3.77-.87.13,3.64-1.42,4.71-3.46,5.12-3.46,5.12l-6.26.35-3.8-3.76s-3.14,2.74-4.28,3.52-4.08-1.3-5.08-1.89-1.91.94-2.93,1.73-5-6-7.63-9.26a4.29,4.29,0,0,1-2.89.35,17.72,17.72,0,0,0-3-1c-1.24-.16-2.4.58-3.57.8a16.57,16.57,0,0,0-2.92.64c-2.73,1.07-5.48,2.12-8.08,3.45-1.22.62-4.16,3.28-4.58.63a11.9,11.9,0,0,1,.81-5.78c.86-1.69,2.91-1.91,4.52-2.54,2.85-1.11,4.43-3,6.42-5.32a11.58,11.58,0,0,1,3.17-2.83c1-.54,2.14-.7,3.19-1.15,1.89-.79,3.15-2.73,4.58-4.12a5.91,5.91,0,0,0,1.31-1.75c-4.2-1.27-4.36-3.94-4.25-5.95.13-2.37-2.3-4.1-3.07-5s-.5-2.73.37-5.19-.87-3.22-1.8-4.09-3.72,1.72-8,3.43-5,2.17-6.9,5.26-10.05,4.15-11.71,5-10.79,9.07-15,10.47c-2,.68-5.77.41-9.11,0l0,.64-5.09,7,1.54,13.45-9.82,7.42-5.84,9.58-18.32,9.77-34.08,34.9,8.15,12.46L26.45,403.53l2.12,8L24.29,419l16.64,11.07.22,10.18-7.23,13.27,10.7,1.38a25.24,25.24,0,0,1,4.87-5.35c.93-.85.91-1.71,1.15-2.86a20.39,20.39,0,0,0,.46-3.2,10.88,10.88,0,0,1,.59-2.76,5,5,0,0,1,1.2-2.46,5.72,5.72,0,0,0,1-.87c.38-.48.58-1.07.95-1.56.73-.95,1.83-1.45,2.53-2.41.56-.74,1.19-1.44,1.71-2.22a26.61,26.61,0,0,1,1.48-2.31,3,3,0,0,1,2.24-1.4c1.14-.1,2.16-.15,2.88-1.14s.55-1.87,1.16-2.68c.35-.5.9-.54,1.36-.9a2,2,0,0,0,.65-1.32c.23-1.06-.13-2.1,0-3.15s1.51-1.25,2.35-1.62a1.85,1.85,0,0,0,1.09-.9,8.19,8.19,0,0,1,.53-1.43c.46-.72,1.67-.84,2.39-1.37a2.26,2.26,0,0,0,1.1-2.28c-.15-.92-.89-1.81,0-2.52s1.85-.36,2.79-.36a11.61,11.61,0,0,0,3.72-.74,7.54,7.54,0,0,1,3.32-.75,11.16,11.16,0,0,1,2.87.51,3.72,3.72,0,0,0,2.49.17,5,5,0,0,0,2.29-1.14,2.54,2.54,0,0,1,2.08-.95c.91,0,1.75.16,2.65.18a3.21,3.21,0,0,0,2.2-.91c.33-.3.59-.68.92-1a12.41,12.41,0,0,0,2.55-2.22c.49-.8.52-2,1.25-2.64a3.9,3.9,0,0,1,2.38-.45c2-.09,1.92-1.24,2.77-2.69a11.59,11.59,0,0,1,2.72-2.87c1.4-1.1,2.56,0,3.75.82,1.37,1,2.53.57,4.05.2,1.36-.3,2.91-.11,4.18-.75s2-1.7,3.54-1.44,2.67,1,4.19,1.1a4.51,4.51,0,0,1,3.55,1.72,3.53,3.53,0,0,0,3.65,1.15,14.38,14.38,0,0,1,4.93-.49c1.67.2,3.27.76,4.93,1,1.5.23,3.57.16,4.52,1.56.76,1.12,1.07,3,2.65,3.31s3.1-.56,4.57-.62A5.5,5.5,0,0,1,166,401.4a7.25,7.25,0,0,0,2.11,1.44,8.22,8.22,0,0,0,2.27.29,8,8,0,0,1,3.72,1.2c1.08.68,2.06,2.25,3.47,2.15.69,0,1.23-.37,1.92-.06,1,.44,1.44,1.41,2.11,2.17.46.51,1,.86,1.51,1.32a12.71,12.71,0,0,0,4.84,3.24,31.66,31.66,0,0,1,5,1.73,16.78,16.78,0,0,1,3.7,3.54c1.34,1.48,2.77,3.12,3,5.19s-1.06,3.42-2.9,4.14a9.41,9.41,0,0,1-5.7.31,8.49,8.49,0,0,0-2.73-.45,2.37,2.37,0,0,0-.46.11c1.41,2,2.74,3.93,3.26,4.66,1.27,1.8,1,3.55.43,6.4s3.48,5.44,6.6,6.4,2.44,7.13,3,10.25,1.59,3.7,4.28,4.76,3.23,6.34,3.23,6.34,1.42,7.45,3.86,9.94,1.16,6.6,3.06,7.92a5.87,5.87,0,0,1,2.32,3.28s8.41-.95,12.43-1.27,5.49-5.23,7.34-8.93,8.08-7.45,11.2-9.57,3.92-8.13,3.39-11,5.77-8.62,5.77-8.62.15-6,.31-7.88-1.27-4.22-3.33-6.81-1.27-6.4-.43-8.2.69-4-1-7.55,2.33-4.44,4.54-4.87,2.07-9.45,2.23-12a8,8,0,0,1,2.85-5.34C264.53,394.33,263.47,385.29,263.47,385.29Zm-90.3-62.09,5.59-1.35,4.87-7.29,2.66-.56,2.27,3.85,2.73,2.1a1.14,1.14,0,0,1-1,1.27c-1.19.24-1.83.36-1.63,1.43a15.19,15.19,0,0,1,0,3.12,11.19,11.19,0,0,1-1.43,1.08c0-.12-7.85-2.62-7.85-2.62l-6.45,2.06Zm-97,23.1c-1.24,1.22-2.25,2.84-3.37,4.19s-2.38,2.09-3.48,3.37-2.62,1.81-4,2.64a24.66,24.66,0,0,0-2.88,1.95c-.25.2-.5.39-.74.6-.41.34-1.93,2-2.53,1.22-.35-.49.92-2.25,1.24-2.65a19.5,19.5,0,0,1,1.94-1.79c.63-.63,1.31-1.22,2-1.83a11.17,11.17,0,0,1,3.47-2.56A17.87,17.87,0,0,0,71.47,349a8.08,8.08,0,0,0,1.82-1.73,6.4,6.4,0,0,1,1.81-2c.4-.24,1.16-.57,1.56-.21C77.21,345.57,76.53,346,76.19,346.3Zm92.46-22.66.28,4.39s-2.5.83-2.57,1-2.35-4.15-2.35-4.15l-.59-2.46,5.47-2.9,2.3,2.23Z" fill="#0082d2"/><path d="M517.12,384.55l-5.06,11.07L501.4,398l-.49,12.22L499,411.38l-11.54,2.89-6.41,8.37,6.21,6.95-9.65,6.48-1.76,6.75-7.21,2.48-6.81,8.91-12.14,2.29s-7.76,7.7-9.59,11.34l4.11,3.51,3.11,5,4.45,1.08L458,489.77l-1.35,8.78-3.51,5.8-5.13.94-1.89,5.46-14.3,2.57-3.92,11.61,2,3.91-3,5.6.4,4.59-7.9,6.74-14.15.34-6.28,5.13-2.57,9.45,3.23,7.28-4.78,1.89-6.21-3.71-7.5,2.5-11-6-2.16,6.12-5.81-.4.21-8-7.49-8.23-14.64,1.42-3.59-3.92-7.48-.07-.47,7.82-15.12,2-.73,4.85s-12.62,7-16.87,12.68l-5.8-4.85-13.23-1.48-8.1,8.63-9.92.47-2,8.63-5-.05-4.37-6-8.72,6.61-3.84.13-2.15-7.82L224,570.07l.86-7.9-7-5.87-3.1-13.76L208.24,541l-6.75-13-4.86,4-5.72-1.88-.14,4.64-4.46-2.89,5.94-22-21.46-3.52-1.69-7.89,5.81-7.08-.67-9.72,10.31-18-9.91-7.42L168,439.51l4.19-5.67A31.66,31.66,0,0,1,174.1,431c.17-.25.33-.5.52-.73a2.48,2.48,0,0,1,.44-.53c.15-.11.09-.06.25-.06a3.9,3.9,0,0,0,.5,0c.52,0,1.06.36,1.57.32a8.81,8.81,0,0,1,1.46-.1c.89.09,1.78.16,2.68.23a6.63,6.63,0,0,0,4.9-1.51,4.73,4.73,0,0,1,1.48-.95c1.41,2,2.74,3.93,3.26,4.66,1.27,1.8,1,3.55.43,6.4s3.48,5.44,6.6,6.4,2.44,7.13,3,10.25,1.59,3.7,4.28,4.76,3.23,6.34,3.23,6.34,1.42,7.45,3.86,9.94,1.16,6.6,3.06,7.92a5.87,5.87,0,0,1,2.32,3.28s8.41-.95,12.43-1.27,5.49-5.23,7.34-8.93,8.08-7.45,11.2-9.57,3.92-8.13,3.39-11,5.77-8.62,5.77-8.62l4.63-.69,1.54-1.11,3.41-.91.56-2.46-.36-3.45,4.25-3.57h5.59l.5,6.1s11.59-3.72,11.62-3.84,1.51-2.76,1.51-2.76,10.78-3.38,10.89-3.38,3.14-1.82,3.14-1.82h4.4l4.44,1.87,14.12-2.47V427h-6.82L320,424.6l3.41-2.3,4.2-.43,5-1.86,3.49,1.89,8-10.42,5.66,3.92,4.69,1,6.22,3.05,10.39-6,8.09-4.2s7.41-8.36,7.53-8.36h6.06l4.12-1.27a4.24,4.24,0,0,1,2.7-1.39c2-.39,5.47-1.67,6.14-2.86a3.88,3.88,0,0,1,2.66-1.82c1-.28,2,.28,2.78-1.46s3.36-5.28,2.69-5.95-2.26-2.66-.75-3.8,9.63-7.69,9.63-7.69,4.95,3.48,9.23,3.64,6.94.31,6.94.31l6.9,6s13.28-.63,14.27.83,2.85,4,5.63,2.9,17.2-7.65,17.2-7.65,9.83-6.46,10.78-11.07,3.86-16.76,3.86-16.76l4-6.44.41,1.17,4.92,3.94s-1.91,7.93-2.62,11.28a12.82,12.82,0,0,0,.53,8.43c1.19,3.17,2.77,8,2.77,8Z" fill="#00d2aa"/><path d="M928,351.12,923,375l-5.4.21-12.81-7.76-4.12,2.49-11.6-.47-2.3-6.13-7.9-1.76-3.17-4.72,4.52-6.21-7.21-6L869.8,350l-21.73,2-.68,9.78-9.51,12,1.36,21.94-3,4.64,4,11.07,12.28-2.23,9.25,3.24,1.89,6.89-6,3-5.66,14,15.46,22-4.45,4.26-1.7,6.14-9.65.19-7,3.25-4.39-3.64,2.7-9.25-11.94-6.48-4.39-11.2,2.51-7.35-8.1-9-6.89,2.49-5.13-3.71-5.66,5.13-17,6.62-8.24-2.78-5,6.08,1.49,6-4.73,6.81-5.54-2.15-8.22,2.7-8.64-.41L735,443.69l-4.4-10.32-9.32-6.55-2.56-15,2.56-9.17-1.74-11-5.74-2-6.06,8.5L701,395.32l-1.21-6.15-17.35,1.89-1.48,10.6-5.13,7.15,6.28,8.37.47,13L686.07,442l-8.36,27.4-8.78,9.1-2.76,11.34-8,2.15-.12.12a30.73,30.73,0,0,0-14.46-14.27l-1.74-15.38-3.42-1.74-1.26-6.83,3.09-1.82.55-13,4.2-3.88.08-15.18,1.43-4.49-3.4-3.64.15-1.9,2.54-2.62-1.11-9.28-4-2.61-4.35,2.21-4.92-4.83-3.49-11.42,4.6-13.87-7-8.56-8.56.71.08-4-1.35-2-3.57,3L605,355l-2.54,3.41,3.18,4-.24,5.08-11.58,6.1-13.64.64-6.1-3.89-14.43-.55-.93-9.33-4.49-5-.13-5.42,4.46-5.36,0-10.39,7.27-1.11,5.87-4.78.45-5.05-.1-2,5-.26,2.75,1.81,5-2.16,1.08-4.94,1.13-1.75,1.19-8.16,5-5,4.69-3.14,7.75.24,3.53,5.79s11.73-3.14,13.91-3.89,5.28-6,6.9-7.85,2.46-5.86,2.66-8a16,16,0,0,1,1.82-5l6.51.36,4.36,6.3a44.16,44.16,0,0,1,6.54-3.41c1.14-.43,1.78-2,2.42-3.84s9.47-1.87,9.47-1.87L673.44,265c.35,2.54,1.51,5.44,4.75,5.4,5.16-.08,18.79.47,21.33,2s13.87,7.77,15.23,6.27,4-3,4.44-8.41,1.58-9.28,3.08-11,5.24-9.52,7.46-9.83,3.72-2.7,2.38-5.31-10.63-13.05-11.37-19.51l10.75-2.27,3.31,3.91,9.81-3.42,4.72,2.25,4-2.29,8.58-1,11.84,7.2,7-.27,7.24,4.31,8.9-.63,6.58,9-3.79,6.84,1.4,10.07,10.21,5.89,10.43.46,11,5.57,4.82,9.54,8.32.9,1.22,4.09,13.12-.49,3.61-5.94,5.62.45,4.09-5.89-2.79-6.34,5-8.41,11.57,1.66,2.88-2.88-1.81-3.28,4.95-5,2.84-9.81,9.72-1.81,5,6.26.18,4.54,6.71.59,7,5.32s-1.36,9.3-3.38,13-1.27,3.52-.81,5.14,2.21,10.85,2.21,10.85-1.93,9.79-8.35,15.33L918,310l-7.49,5.33,2.16,6.95-7,8.3,3.5,12.28,9.86-.67Z" fill="#00d7e1"/><path d="M42.9,458.9c-.11,1.28.43,2,.81,3.13a2.75,2.75,0,0,1-.44,2.83,16.14,16.14,0,0,0-2.58,5.56,16.83,16.83,0,0,0-.66,3.12c-.1,1,.09,2.1.09,3.14,0,.67-.06,1.38,0,2.05s.24,1.11.29,1.67a4.61,4.61,0,0,1-.6,3,20.39,20.39,0,0,1-1.76,2.72,32.27,32.27,0,0,1-4.52,4.68,7.82,7.82,0,0,1-2.12,1,4.68,4.68,0,0,1-2.39.49c-.87,0-1.62-.15-2.48-.25s-2,.09-3,0A38.43,38.43,0,0,0,19,491.9,9.25,9.25,0,0,0,14.85,493c-.79.36-1.67.44-2.5.8A19.52,19.52,0,0,0,9.89,495,13.79,13.79,0,0,0,7,497.56c-.81.88-1.82,1.45-2.58,2.4-1.29,1.63-2.73,2.93-3.53,4.85l-.05.09L0,504.69l1-6.26,5.71-6.74L3,485.21,11,475l6.61-.69,7.07-5.22,9,.87L33,455.25l.94-1.74,10.7,1.38a2,2,0,0,0-.2.35A9.73,9.73,0,0,0,42.9,458.9Z" fill="#00aae1"/><path d="M71.52,467.8l-3.55,10-22.68,9.54L43,496l-11,4.13-18.44,1.72-9.81,3.87-.42-.12c.14-.31.27-.62.44-.92A12.79,12.79,0,0,1,6,501.82c1.83-2,3.87-4.29,6.38-5.47a9.21,9.21,0,0,1,2.34-.83,29.21,29.21,0,0,0,3.08-1c-.11.05-.17.08.05,0s.49-.14.75-.19c.44-.07.85-.18,1.29-.28a13.06,13.06,0,0,1,2-.27,15.23,15.23,0,0,1,4.95,0c1.43.35,2.82-.16,4.23-.53a12.21,12.21,0,0,0,3.59-1.55,15.54,15.54,0,0,1,2-1.38c2-1.38,3.24-3.76,4.48-5.8a2.43,2.43,0,0,1,.3-.4,6.44,6.44,0,0,0,.75-.94c.42-.74.32-1.53.68-2.27.78-1.62,2.33-2.62,3.61-3.78a9.19,9.19,0,0,0,1-1.06c.26-.29.62-1.05,1-1.14a22.54,22.54,0,0,0,.92-3.66c.11-1.09.18-2.13.27-3.22A7.47,7.47,0,0,1,52.12,463c.81-.65,1.66-1.24,2.41-2a12.11,12.11,0,0,0,2.82-3,4.26,4.26,0,0,0,.35-1.71c0-.27.87-1.4.69-1.58.65-.06,1.61,1,2.1,1.37.31.24,1,.51,1.14.91s-1,1.89-1.27,2.3l-3.51,3.32,7.88,7.15L69,466Z" fill="#00aae1"/><path d="M658,492.11l-14.92,12.44,4.19,6.75-2.09,9.43-10.26,3.11-3.65,5.54a47.34,47.34,0,0,1,3.62,7,10.77,10.77,0,0,0-1.65.93,9.61,9.61,0,0,0-1.83,1.83,9.3,9.3,0,0,1-2.37,1.62,8.44,8.44,0,0,1-1.68.59,1.9,1.9,0,0,0-.71.48c-.08.09-.17.22-.26.34s.15,0,.12.06c-.77,1.1-1.82,1.54-2.81.55s-1.53-.51-2.63.19c-.56.36-1.19.75-1.32,1.46a11.16,11.16,0,0,0,.16,2.58,13.41,13.41,0,0,0,.23,2.54,7.31,7.31,0,0,1-.34,4.15c-.58,1.88-1.44,3.66-2.06,5.51a9,9,0,0,1-2.82,4.54,5.51,5.51,0,0,1-1.46.51c-.49.21-.83.59-1.38.32-.84-.43-.93-1.5-.89-2.31a27.31,27.31,0,0,0,0-3.62,6,6,0,0,0-.54-2.6,6.14,6.14,0,0,1-1.16-2.48,9.7,9.7,0,0,1,.06-3.09,5.75,5.75,0,0,1,1.17-2.09c1.08-1.5,1.83-3.87,0-5.06a2.89,2.89,0,0,0-1.88,2.45,25.86,25.86,0,0,1-1.74,4.86c-.33.9-.46,1.82-.84,2.69-.16.38-.46.71-.58,1.1s-.12,1.06-.23,1.54a2.77,2.77,0,0,0-.05.29,16.19,16.19,0,0,1-2.5-.36l-2.47-.18-3.65-6.14-2.09-2.15-6.89-.75.48-9.45,10.31-10.39,1.56-5.45-9-7.89-7.93.61a10.25,10.25,0,0,1-1.08-.13.86.86,0,0,1-.86-.73,4.52,4.52,0,0,0-.56-1.2c-.46-.73-1.1-1.54-2.05-1.47.36-.26.73-.51,1.07-.78,1.73-1.37,3-3.23,4.73-4.54a16.19,16.19,0,0,1,5.83-2.78c2-.46,4.29-.33,5.81-1.89s.94-4-.1-5.79c-.76-1.35-2.31-4.44-4.27-3.68a23.51,23.51,0,0,0-2.86,1.68c-.9.5-2.4,1-3,1.87a7.52,7.52,0,0,0-.6,2.69,10.44,10.44,0,0,1-.42,1.92,4.85,4.85,0,0,1-.7,1.55,1.75,1.75,0,0,1-1.71.33c-.48-.11-.93-.33-1.39-.46a7.23,7.23,0,0,0-1-.12,7.15,7.15,0,0,0-3.22-.11,11.73,11.73,0,0,0-3.13,1.6c-.56.35-1.1.75-1.69,1a2,2,0,0,0-1.14.88c-.17.35-.24.72-.4,1.07-.35.83-1,1.37-1.37,2.22-.25.67-.27,1.44-.57,2.1a6.31,6.31,0,0,1-1.5,1.75c-.53.5-.54,1.22-.77,1.93a2.85,2.85,0,0,0-.16.29H566v.14a8.9,8.9,0,0,1-1.69-1.49c-.5-.51-1.34-.66-1.8-1.18l-3.44-3.64-8.16-.38-4-7.22-4.58-2.3L530,479.12,523.4,478l-9.72-8.84,2.5-5.13-5.73-9.58,5.46-8.15,2.16-11.82-1.49-3.57-1-20.72L509.44,405l-8.53,5.26L501.4,398l10.66-2.38,5.06-11.07,7.4-3.28-.21-3.51,1.9-2.56.21-4.74,13.19-1.08s.86,2.23,1,2.38a40.28,40.28,0,0,1,4.22.21l3.06-.24,3.81,4.28,8-6.23,14.43.55,6.1,3.89,13.64-.64,11.58-6.1.24-5.08-3.18-4L605,355l7.13,1.66,3.57-3,1.35,2-.08,4,8.56-.71,7,8.56-4.6,13.87,3.49,11.42,4.92,4.83,4.35-2.21,4,2.61,1.11,9.28L643.23,410l-.15,1.9,3.4,3.64L645.05,420,645,435.19l-4.2,3.88-.55,13-3.09,1.82,1.26,6.83,3.42,1.74,1.74,15.38A30.73,30.73,0,0,1,658,492.11Z" fill="#0082d2"/><path d="M635.82,538.9a16.9,16.9,0,0,1,.59,2.49L627,547.86l-5.32,7.69,3,1,3.58-4.31,3.91.57,2.77,8.8s6.55,1.62,6.74,1.62,7.43,7.89,7.43,7.89l-6.35,7.3-5.32,16.86L633,596l-11.81-5-7.49,2.36L611.38,589l6.14-6.42-2.36-8.85a5.18,5.18,0,0,0-.67-2,8,8,0,0,0-.68-1.41,4.72,4.72,0,0,0-1.17-.91,24.08,24.08,0,0,1,5.43-5.09c.92-.61,2.15-1.24,3.24-.73a3.72,3.72,0,0,1,2,2.52,25.65,25.65,0,0,1,1,3.56c.09.49,0,1.54.58,1.72.43.12,1.09-.51,1.36-.8.73-.87.33-2.19.46-3.2a4.47,4.47,0,0,0,0-1.63c-.18-.82-.82-.88-1.37-1.43a4.21,4.21,0,0,1-.89-1.94c-.23-.91-.34-1.09-1.27-1.33s-1.57-.56-2.35-.79c-.56-.15-1.15-.23-1.38-.84-.42-1.15.55-2.94,1-4a11.84,11.84,0,0,0,1-2.1,14.39,14.39,0,0,1,.45-2.07,13.44,13.44,0,0,1,2.58-4.5,6.25,6.25,0,0,1,1.76-1.18c.54-.29,1-.74,1.54-1a18.2,18.2,0,0,0,2.28-1.35,9.58,9.58,0,0,0,1-.81c.15-.11.31-.19.46-.28l-.13.09.08-.05C632.89,541.2,634,539.09,635.82,538.9Z" fill="#0082d2"/><path d="M723.73,141.26l-2.65,12.05-9.19,10.46-12.95,6.83-9.25-3.76a42.5,42.5,0,0,1-1.21-5.54c-.53-3.33-1.06,0-1.75-4.76s-5.6-6.4-5.6-6.4a17.17,17.17,0,0,0,1.06-7l3.85-1.54a3.14,3.14,0,0,1,3.23-2.38c1.79-5.81,3-7.76,3-7.76-.58-1.91-1.54-5.4-1.54-5.4l5.24-.52,2.22,2.53,5.18.69,9.14,7,9.25-.27Z" fill="#8cd26e"/><polygon points="733.4 117.48 732.61 118.64 730.23 118.64 730.23 120.38 722.09 122.87 724.52 114.15 728.22 112.08 729.43 113.25 729.43 115.63 732.87 115.63 733.4 117.48" fill="#8cd26e"/><polygon points="739.79 110.55 737.21 113.14 738.68 116.21 737.42 117.1 735.88 114.57 735.88 113.03 733.72 112.77 733.4 109.97 737.84 106.96 738.84 107.58 739.79 108.18 739.79 110.55" fill="#8cd26e"/><path d="M524.57,290.89l-2.74,5.87-2.76,1.37-1,4.44-2.43,2.28,2.17,6.6-5.76.56-3,1.2-.63.25-3.29-1.11v-5.87l-6.65-3.33-5.08-9.35L491,285.4l1.91-2.7L499,283l4.65,4.33,9.36-.64h0l4.54.7Z" fill="#8cd26e"/><path d="M670.43,258c-1.19-.71.16-3.25,1.74-4.36s.4-4.6.08-10-4.52-8.56-5.63-10.31-2.86-1.1-7.53-.55-7.22-1.5-8.64-3.64,4.68-4,8-5.87.84-12.37.84-12.37a7.75,7.75,0,0,0-1.3-4.5,26.21,26.21,0,0,1-3.26-.9,10.46,10.46,0,0,0-3.26-.66c-1.22-.06-2.42-.38-3.63-.4a12.5,12.5,0,0,1-1.63-.14,14.22,14.22,0,0,0-2.34-.27c-.55-.13-2.49-.34-2.61-1.05-11.75.52-17.29-7.47-19.57-11.59-.83,1.84-5,5.74-6,7.8s-.77,8.87-.55,10.89-1,2-2.35,2.72-1.07,1.64-1.12,3,.9,1,2.06,1.43-.16,2-.76,4.88-3.54,5.42-4.78,7.4-2.94.59-4,.51-3.41,2.43-4.17,3.32.23,2.39.12,3.73,1.17.4,2.31.24,1.26.19,2.45,1.11,3,4.33,3.47,5.26a9,9,0,0,1,.71,3.33c.11,1.35,2.41,2.64,3.09,3.14A22.65,22.65,0,0,1,616,255c.3.9-1.5,2.43-2.08,3s-.4,1.45-.35,2.57-3.58,4.06-5,5.61a13.62,13.62,0,0,1-1.15,1h0l3.64,2.34,3,7.72s-8.33,7.16-10,8.27a69.92,69.92,0,0,0-6.28,5.86v6.4l7.75.24,3.53,5.79s11.73-3.14,13.91-3.89,5.28-6,6.9-7.85,2.46-5.86,2.66-8a16,16,0,0,1,1.82-5l6.51.36,4.36,6.3a44.16,44.16,0,0,1,6.54-3.41c1.14-.43,1.78-2,2.42-3.84s9.47-1.87,9.47-1.87L673.44,265a11.25,11.25,0,0,1,0-3.4C673.75,260.13,671.61,258.7,670.43,258Zm-48.94-22.72a5.84,5.84,0,0,1-2.63.82,16.49,16.49,0,0,0-2.65.64,9.16,9.16,0,0,1-2.56.44c-.75,0-2.45.44-2.89-.46s.57-1.78,1.3-2a4.06,4.06,0,0,1,2,0,7.73,7.73,0,0,0,1.92-.05,1.89,1.89,0,0,0,.9-.24,4.74,4.74,0,0,0,.74-.29,3.47,3.47,0,0,0,.63-.64,8.82,8.82,0,0,1,1.52-1.13c.83-.57,2.94-.89,3.19.55C623.08,233.89,622.2,234.79,621.49,235.27Z" fill="#8cd26e"/><path d="M614.08,277.26s-8.33,7.16-10,8.27a69.92,69.92,0,0,0-6.28,5.86v6.4l-4.69,3.14-5,5-1.19,8.16-1.13,1.75-1.08,4.94-5,2.16L577,321.13l-5,.26.1,2-.45,5.05-5.87,4.78-7.27,1.11,0,10.39-4.46,5.36.13,5.42,4.49,5,.93,9.33-8,6.23-3.81-4.28-3.06.24a40.28,40.28,0,0,0-4.22-.21c-.1-.15-1-2.38-1-2.38l-13.19,1.08-.21,4.74-1.9,2.56.21,3.51-7.4,3.28-9.49-5.31s-1.58-4.84-2.77-8a12.82,12.82,0,0,1-.53-8.43c.71-3.35,2.62-11.28,2.62-11.28L502,347.58l-.41-1.17-1.7-4.83,2.95-4.47,5.27.32,3.24-3.28s-1.64-7.95-2.5-10.33.41-5.47,1.48-6.23-1.27-4.38-1.27-4.38l3-1.2,5.76-.56-2.17-6.6,2.43-2.28,1-4.44,2.76-1.37,2.74-5.87-7-3.49-4.54-.7c.08-.41,1.57-7.78,1.21-8.81s-1.7-2.32-.79-4.65a14.55,14.55,0,0,1,3.48-4.6l9.36-3.06,3.81-13.31a1.45,1.45,0,0,0,.39-.2c.48-.29.89-.7,1.37-1A4.87,4.87,0,0,0,534,249a2.65,2.65,0,0,1,2.31-1.7c.68-.06,1.94-.09,2.44.49a4.82,4.82,0,0,1,.57,1.86,15.11,15.11,0,0,0,.38,2.41,3.54,3.54,0,0,1,0,2.6c-.58,1.8.22,3.82-.58,5.59-.31.43-.62.87-.9,1.33-1.36,2.32.24,3.63,1.63,5.43a2.94,2.94,0,0,1,.71,2.57,7.56,7.56,0,0,0-.39,3c.32,1.69,2.17,4.14,3.8,2.28a6.78,6.78,0,0,0,1.59-5.8c-.5-2.34-1.94-4-3-6s-.06-3.13,1.06-4.39a16.52,16.52,0,0,0,6.17.82c4.68-.32,10.54-.48,10.22,1.59s-1.58,2.85-.71,3.72,1.83,4,3.65,3.41,1.75-2.62,2.94-3.57,7.28-3.89,7.84-3.33,2.1,3.1,3.41,2.58,2.54-1.08,3-1.19,1.26-.12,1.22-1-.39-2.46.87-2.26,2.18-.13,2.46.75,2.49,2.16,1.59,2.88-1.43,1.45-1.12,2.16-.67,1.86,1,1.86,2.5.51,2.66,1.86.63,11.17,3.12,9.48c2.17-1.48,12-8.4,15.5-11.25l3.64,2.34Z" fill="#00aae1"/><path d="M419.5,135.39c-1.16,1.33-2,3.55-3.49,7.19s-18.12-.15-18.12-.15c-.12,2.69-3.55,7-5.71,7.76s-3.44,3.54-4.87,5.92-4.72,7.93-4.72,7.93-2.89,0-4.56-.12-2.81,3.29-2.81,3.29l-4.09-.23-.71-2.47.71-2-2.53-.43-2.81,3.73-4.88-1.43-9.43-8.88-10.11,3.92-8.41.95.32,1.52.67,2.8s.4,4.21.68,5.55a4,4,0,0,0,2.57,2.54c1,.43.92.4,1.39,1a6.68,6.68,0,0,0,3.61,2.38c2.38.79,2.85,7.64,2.85,7.64l5.43,1.11.44,5.47-3.69,2.82-1.78,4.2-9.31,1-4.25-4.79-8.32.9-2.78,2.78-1.26,9.12-11.15,4.32.84,7.29-.6.76-5.39,2.37-1.15-.35.68-5.19-2.46-1.71-6.86,2.9-5.39-8.49,2.7-2.1,9.07,3,1.39-2.26-1.47-1.31L299,202a58.87,58.87,0,0,0,5.19-4.52c1.39-1.55,5-1.23,7.62-1.07s3-.6,2.41-4-5.22-4.09-6.3-4.09a11.26,11.26,0,0,0-5.51,2c-1.35,1.19-7.86,3.83-7.86,3.83l-5.08-9.23h-4l-3.57-6.4a60.72,60.72,0,0,0,7.37-2.8,86.74,86.74,0,0,0,8.51-5.28l1.06-3.76,9.49-3.09,4.2-6.15,10-3.07,1.54-1.4,1.7-4.26,2.14-5.33s-1-.43-2.57-1.25-1.14-2.56-2-3.86-5.79-4.59-5.79-4.59l-12.5-.24-2.29-2.38.93-6.46,6.93.2,1.67,2.62,6.82-2.59,1.23-5.5,5.47-.68,1,1.28,3.33-.6,2.23-5,5.75-1.7,1.47-8-2-1.11,1-6.38a24.17,24.17,0,0,0,4.69,1.71c2.06.43,3.44-4.65,3.44-4.65h1.16l1.43,4,6.45,1.86s.21,1,.68,2.9-1.79,2.33-2.85,3.33-3.17,14.28-3.17,14.28l-9,.63s-.38,7.24.42,7.82,2.58,5.61,2.58,5.61,13-1.8,15.12-2.22,2.43,3.06,3.91,4,2.75,3.81,2.75,3.81l8.14,1.63a6.37,6.37,0,0,0,.05-2.32c-.15-1.64,1.38-2.54,3-4s5.92-4.28,8.67-4.92,6.87-5.5,6.87-5.5l14.43-7.55.21-3-3.12-3.75,2.06-6.45,3.17-.16s2,5.5,2.85,7.26.21,1.89-.68,2.47-.27,2.06-.27,3.33,1.69,2.91,4.13,3.85,5.12,5,6.28,6.56S420.66,134.08,419.5,135.39Z" fill="#00d2aa"/><path d="M505.94,243.17l-1.69,1.58-8.4-.55-.48-2a4.3,4.3,0,0,1,1.41-.36,14.93,14.93,0,0,0,3-.23c.73,0,1.44-.38,2.16-.2a23.07,23.07,0,0,1,2.51.95A11.59,11.59,0,0,1,505.94,243.17Z" fill="#8cd26e"/><path d="M521.25,236.66l-1.85,7.56-1.22,1.21-.2-.18c-.69-.69-1.27-1.7-.7-2.6s1.62-1.56.78-2.72c-.7-1-2-.91-2.87-1.71s-.84-1.72-2.24-1.77a4.81,4.81,0,0,1-1.65-.16,5.64,5.64,0,0,1-1.16-.9c-2.14-1.65-4.62,0-6.92.3-.85.11-2.26.34-3-.29a1.93,1.93,0,0,1,.24-2.6c.6-.57,1.33-1,1.94-1.6.8-.74,1.85-1.11,2.68-1.85a9.63,9.63,0,0,0,1-1l5.13-.45,3.7,2.44Z" fill="#8cd26e"/><path d="M228.27,280.9l3.49,4.36-10,6.9-3.49-7-2.7-1.35s2-6.26.08-6.73-3.32-.88-3.32-.88l-1.27-3.09s2.93-1.66,1.89-3.25-3.08-.08-3.08-.08l-2.63-4.28.45-.45,0,0,3.21-3.2a43.93,43.93,0,0,1,3.94-2.9c2.29-1.75,5-3.06,6.73-5.46a6.68,6.68,0,0,0,1.17-3.82,6.05,6.05,0,0,0-.82-3.13,2,2,0,0,1,2.16,1.45c.17.73.66,2.76,1.23,5.14.91,3.76,2,8.4,2.47,10.26a7.83,7.83,0,0,0-.89.4,14.36,14.36,0,0,0-3.58,2.8c-1.1,1.15-2,2.74-1.1,4.28.72,1.26,2.44,1.94,3.76,2.34s2.9-.33,4.21-.88c.53-.22.86-1.33,1.27-2.07l2.8,4.89Z" fill="#00d2aa"/><path d="M168.65,323.64l.28,4.39s-2.5.83-2.57,1-2.35-4.15-2.35-4.15l-.59-2.46,5.47-2.9,2.3,2.23Z" fill="#8cd26e"/><path d="M190.26,321.22c-1.19.24-1.83.36-1.63,1.43a15.19,15.19,0,0,1,0,3.12,11.19,11.19,0,0,1-1.43,1.08c0-.12-7.85-2.62-7.85-2.62l-6.45,2.06.27-3.09,5.59-1.35,4.87-7.29,2.66-.56,2.27,3.85,2.73,2.1A1.14,1.14,0,0,1,190.26,321.22Z" fill="#8cd26e"/><path d="M288.33,335.41a2.93,2.93,0,0,1-1.71-2.89c.16-.76-9.71-3.42-9.71-3.42a25.51,25.51,0,0,1-1.1-3c-.36-1.3,0-2.1,1.14-4s-1.71-6.5-2.18-8,.59-1.9,1.54-2.5,1.48-2.25,1.63-3.36,1.47-4.52,1.55-7.14,2.41-2.7,2.89-5.43-4.88-5-4.88-5l1.63-4.16,3.89,2s0,2.66.83,3.69,2.26-2,3.29-3.49.59-3.84.75-6.66-.71-2.69-3.65-4.76-7.37,1.31-11.18,1.79-7.41-3.84-7.41-3.84l-6.22-.45L253.8,276l-1.78-2.3,7-6.74-2.18.56-.59-3.69L253,260.29l3-2.18.55-3.92,5.12-6.95L256,241.3l-7.61,5.35-6,3.06-3,.35-4.87,1.35-9.26,1.76c.91,3.76,2,8.4,2.47,10.26,1.21-.47,2.51-.65,3.77-1,3.1-.92,5.44-5,9-4s-1,5-2,6.53c-1.2,1.75-3.07,2.77-4.86,3.8a11.39,11.39,0,0,0-2,1.13,2,2,0,0,0-.34.47l2.8,4.89-5.95,5.71,3.49,4.36-10,6.9-3.49-7-2.7-1.35s2-6.26.08-6.73-3.32-.88-3.32-.88l-1.27-3.09s2.93-1.66,1.89-3.25-3.08-.08-3.08-.08l-2.63-4.28-.52.5c-.07.09-.15.18-.32.36-.39.42-1,1-1.47,1.45a17.64,17.64,0,0,1-1.68,1.38,8.42,8.42,0,0,0-2.63,3.8c-.29.7-.54,1.16-1.35,1.34l4.18,7.5,3.8-2.77,2.46-.79,2.3,5.78-2.14,2.86,4,8.4L212.18,298H207.5l-2.06,5.24.87,2.52,1.9-1.42.95,1.42-5.55,5-6,9.68,5.55,1-12.21,17.05-3.09.39-1.27,1.34s1.58,7.86.39,8.41-2.85,1.35-5.23-2.46L174,350l-2.54,4,1.19,20.06,6.07-2.62,2.65,1.22,1.9,0,2.43,2.43,9.25.75s-7.56,5.76-7.34,7.39-.27,3.86-1.8,3.39-4.29-4.71-4.29-4.71l-2.26,2.38-2.17-.42s-1.33,4.39.32,4.91,3,.53,2.85,2,1.16,7.77,3.8,7.24,2.17-4.44,6.66-4.12,17,.85,18.13,4.91,2.27,6,2,8.51-1.48,8.46.37,7.51,5.87-.74,6.61-4.18,1.63-4.49,3.64-5.65,4.81-4.86,8.94-5.13,7,.11,8.72-2.7,3.22-6.81,6.12-8.66,8.46-6.71,8.94-5.5,1.69,6.24,2.91,4.18,2.9-5.34,2.9-5.34c4.56-2.18,9.64-7.61,10.67-9.63s4.2-1.39,6.1-1.2,2.62-5.18,3.29-6.3-.87-2-1.78-3.09a6,6,0,0,1-1.11-3.84c-.08-1.47,1.63-1.79,3.2-2.46s-.07-3.41,0-4.88,2-1.38,3.37-1.46,2.34,1.11,3.37,1.86,1.62-1,2.66-1.39.79-7.61,1.26-10.46S289.72,336.05,288.33,335.41Zm-53.48-54.56-.6-3.28,2.23-1.26,1.1.63.52,2.59S234.93,280.85,234.85,280.85Zm9.17-5.2-2.51.5-1.79-.64-.37-3.17,3.19-2.88,1.48.42Z" fill="#00aae1"/><path d="M238.1,279.53s-3.17,1.32-3.25,1.32l-.6-3.28,2.23-1.26,1.1.63Z" fill="#8cd26e"/><polygon points="244.02 269.88 244.02 275.65 241.51 276.15 239.72 275.51 239.35 272.34 242.54 269.46 244.02 269.88" fill="#8cd26e"/><polygon points="307.6 250.23 310.83 256.78 318.05 257.83 312.82 262.93 314.06 270.12 307.6 266.72 301.14 270.12 302.37 262.93 297.15 257.83 304.37 256.78 307.6 250.23" fill="#fff"/></svg>