<svg width="18" height="19" viewBox="0 0 18 19" fill="none" xmlns="http://www.w3.org/2000/svg">
    <path
        d="M17.5511 9.5C17.5511 14.2085 13.7341 18.0255 9.02554 18.0255C4.31702 18.0255 0.5 14.2085 0.5 9.5C0.5 4.79147 4.31702 0.974457 9.02554 0.974457C13.7341 0.974457 17.5511 4.79147 17.5511 9.5Z"
        fill="#D32F2F" fillOpacity="0.7" />
    <path
        d="M10.3769 2.99936L10.0854 11.9289H7.96563L7.66532 2.99936H10.3769ZM7.59467 14.6934C7.59467 14.3166 7.72421 14.0045 7.98329 13.7572C8.24826 13.504 8.59567 13.3774 9.02551 13.3774C9.46124 13.3774 9.80865 13.504 10.0677 13.7572C10.3268 14.0045 10.4564 14.3166 10.4564 14.6934C10.4564 15.0585 10.3268 15.3676 10.0677 15.6208C9.80865 15.874 9.46124 16.0006 9.02551 16.0006C8.59567 16.0006 8.24826 15.874 7.98329 15.6208C7.72421 15.3676 7.59467 15.0585 7.59467 14.6934Z"
        fill="white" />
</svg>