<svg
    width="21"
    height="21"
    viewBox="0 0 21 21"
    fill="none"
    xmlns="http://www.w3.org/2000/svg"
  >
    <path
      d="M12.3573 19.1223C12.1815 19.4023 11.9292 19.6347 11.6255 19.7963C11.3219 19.9579 10.9777 20.0429 10.6273 20.0429C10.2769 20.0429 9.93271 19.9579 9.62909 19.7963C9.32548 19.6347 9.07313 19.4023 8.89732 19.1223M16.6273 7.11167C16.6273 5.64148 15.9952 4.2315 14.87 3.19191C13.7447 2.15233 12.2186 1.5683 10.6273 1.5683C9.03602 1.5683 7.5099 2.15233 6.38468 3.19191C5.25946 4.2315 4.62732 5.64148 4.62732 7.11167C4.62732 13.5789 1.62732 15.4267 1.62732 15.4267H19.6273C19.6273 15.4267 16.6273 13.5789 16.6273 7.11167Z"
      stroke="currentColor"
      strokeOpacity="0.3"
      strokeWidth="1.5"
      strokeLinecap="round"
      strokeLinejoin="round"
    />
  </svg>