<svg width="15" height="15" viewBox="0 0 15 15" fill="none" xmlns="http://www.w3.org/2000/svg">
    <path opacity="0.25" d="M6.875 1.25H8.125V13.75H6.875V1.25Z" fill="currentColor" />
    <path
        d="M1.875 1.25H6.875V13.75H1.875C1.70924 13.75 1.55027 13.6842 1.43306 13.5669C1.31585 13.4497 1.25 13.2908 1.25 13.125V1.875C1.25 1.70924 1.31585 1.55027 1.43306 1.43306C1.55027 1.31585 1.70924 1.25 1.875 1.25Z"
        fill="currentColor" />
    <path opacity="0.5"
        d="M8 1H13C13.1658 1 13.3247 1.06585 13.4419 1.18306C13.5592 1.30027 13.625 1.45924 13.625 1.625V12.875C13.625 13.0408 13.5592 13.1997 13.4419 13.3169C13.3247 13.4342 13.1658 13.5 13 13.5H8V1Z"
        fill="currentColor" />
</svg>