<svg width="14" height="12" viewBox="0 0 14 12" fill="none" xmlns="http://www.w3.org/2000/svg">
    <path
        d="M13.75 7.875H12.5V9.125H13.75V7.875ZM13.75 5.375H12.5V6.625H13.75V5.375ZM13.75 10.375H12.5V11.625C13.125 11.625 13.75 11 13.75 10.375ZM8.75 0.375H7.5V1.625H8.75V0.375ZM13.75 2.875H12.5V4.125H13.75V2.875ZM12.5 0.375V1.625H13.75C13.75 1 13.125 0.375 12.5 0.375ZM1.25 2.875H0V4.125H1.25V2.875ZM8.75 10.375H7.5V11.625H8.75V10.375ZM11.25 0.375H10V1.625H11.25V0.375ZM11.25 10.375H10V11.625H11.25V10.375ZM1.25 0.375C0.625 0.375 0 1 0 1.625H1.25V0.375ZM1.25 5.375H0V6.625H1.25V5.375ZM6.25 0.375H5V1.625H6.25V0.375ZM3.75 0.375H2.5V1.625H3.75V0.375Z"
        fill="currentColor" />
    <path d="M8.79748 11.6249L2.09599 11.625C0.943195 11.625 0 10.6818 0 9.52901V5.33704L8.79748 5.33698V11.6249Z"
        fill="currentColor" />
</svg>