<svg width="14" height="14" viewBox="0 0 14 14" fill="none" xmlns="http://www.w3.org/2000/svg">
    <path
        d="M10.875 10.0625V11.1875C10.875 11.2708 10.9063 11.3438 10.9688 11.4063C11.0313 11.4688 11.1042 11.5 11.1875 11.5C11.2708 11.5 11.3438 11.4688 11.4063 11.4063C11.4688 11.3438 11.5 11.2708 11.5 11.1875V9.3125C11.5 9.22917 11.4688 9.15625 11.4063 9.09375C11.3438 9.03125 11.2708 9 11.1875 9H9.3125C9.22917 9 9.15625 9.03125 9.09375 9.09375C9.03125 9.15625 9 9.22917 9 9.3125C9 9.39583 9.03125 9.46875 9.09375 9.53125C9.15625 9.59375 9.22917 9.625 9.3125 9.625H10.4375L8.90625 11.1563C8.84375 11.2188 8.8125 11.2917 8.8125 11.375C8.8125 11.4583 8.84375 11.5313 8.90625 11.5938C8.96875 11.6563 9.04167 11.6875 9.125 11.6875C9.20833 11.6875 9.28125 11.6563 9.34375 11.5938L10.875 10.0625ZM10.25 13.375C9.38542 13.375 8.64833 13.0702 8.03875 12.4606C7.42917 11.851 7.12458 11.1142 7.125 10.25C7.125 9.38542 7.42979 8.64833 8.03938 8.03875C8.64896 7.42917 9.38583 7.12458 10.25 7.125C11.1146 7.125 11.8517 7.42979 12.4613 8.03938C13.0708 8.64896 13.3754 9.38583 13.375 10.25C13.375 11.1146 13.0702 11.8517 12.4606 12.4613C11.851 13.0708 11.1142 13.3754 10.25 13.375ZM4 4.625H9C9.17708 4.625 9.32563 4.565 9.44563 4.445C9.56563 4.325 9.62542 4.17667 9.625 4C9.625 3.82292 9.565 3.67438 9.445 3.55438C9.325 3.43438 9.17667 3.37458 9 3.375H4C3.82292 3.375 3.67438 3.435 3.55438 3.555C3.43438 3.675 3.37458 3.82333 3.375 4C3.375 4.17708 3.435 4.32563 3.555 4.44563C3.675 4.56563 3.82333 4.62542 4 4.625ZM6.29688 12.125H2.125C1.78125 12.125 1.48688 12.0025 1.24188 11.7575C0.996876 11.5125 0.874584 11.2183 0.875001 10.875V2.125C0.875001 1.78125 0.997501 1.48688 1.2425 1.24188C1.4875 0.996876 1.78167 0.874584 2.125 0.875001H10.875C11.2188 0.875001 11.5131 0.997501 11.7581 1.2425C12.0031 1.4875 12.1254 1.78167 12.125 2.125V6.3125C11.8229 6.16667 11.5181 6.05729 11.2106 5.98438C10.9031 5.91146 10.5829 5.875 10.25 5.875C10.1354 5.875 10.0285 5.8775 9.92938 5.8825C9.83021 5.8875 9.72875 5.90063 9.625 5.92188C9.53125 5.90104 9.42708 5.88813 9.3125 5.88313C9.19792 5.87813 9.09375 5.87542 9 5.875H4C3.82292 5.875 3.67438 5.935 3.55438 6.055C3.43438 6.175 3.37458 6.32333 3.375 6.5C3.375 6.67708 3.435 6.82563 3.555 6.94563C3.675 7.06563 3.82333 7.12542 4 7.125H7.20313C7.01563 7.30208 6.84625 7.49479 6.695 7.70313C6.54375 7.91146 6.41104 8.13542 6.29688 8.375H4C3.82292 8.375 3.67438 8.435 3.55438 8.555C3.43438 8.675 3.37458 8.82333 3.375 9C3.375 9.17708 3.435 9.32563 3.555 9.44563C3.675 9.56563 3.82333 9.62542 4 9.625H5.92188C5.90104 9.72917 5.88792 9.83084 5.8825 9.93C5.87708 10.0292 5.87458 10.1358 5.875 10.25C5.875 10.5938 5.90625 10.9142 5.96875 11.2113C6.03125 11.5083 6.14063 11.8129 6.29688 12.125Z"
        fill="currentColor" />
</svg>