<svg width="11" height="11" viewBox="0 0 11 11" fill="none" xmlns="http://www.w3.org/2000/svg">
    <path
        d="M0.656239 1.50625C1.91874 3.125 4.24999 6.125 4.24999 6.125V9.875C4.24999 10.2188 4.53124 10.5 4.87499 10.5H6.12499C6.46874 10.5 6.74999 10.2188 6.74999 9.875V6.125C6.74999 6.125 9.07499 3.125 10.3375 1.50625C10.4091 1.41398 10.4534 1.30346 10.4653 1.18725C10.4772 1.07105 10.4562 0.953847 10.4048 0.848982C10.3533 0.744117 10.2734 0.655808 10.1742 0.59411C10.0751 0.532412 9.96055 0.499805 9.84374 0.500001H1.14999C0.631239 0.500001 0.337489 1.09375 0.656239 1.50625Z"
        fill="currentColor" />
</svg>