<svg width="24" height="25" viewBox="0 0 24 25" fill="none" xmlns="http://www.w3.org/2000/svg">
    <path
        d="M12.7152 7.40998C12.334 7.31102 11.937 7.28815 11.547 7.34268C11.1569 7.39721 10.7815 7.52806 10.442 7.72777C10.1025 7.92747 9.80578 8.19211 9.56865 8.50656C9.33152 8.82101 9.15867 9.17911 9.06 9.56038C9.0403 9.63674 9.03584 9.71622 9.04685 9.7943C9.05787 9.87237 9.08416 9.94751 9.12422 10.0154C9.16428 10.0833 9.21733 10.1427 9.28033 10.1901C9.34333 10.2375 9.41505 10.2721 9.4914 10.2918C9.56775 10.3115 9.64723 10.316 9.72531 10.3049C9.80339 10.2939 9.87853 10.2676 9.94645 10.2276C10.0144 10.1875 10.0737 10.1345 10.1211 10.0715C10.1686 10.0085 10.2031 9.93674 10.2228 9.86038C10.3004 9.55788 10.4553 9.28076 10.6724 9.05624C10.8894 8.83173 11.1612 8.66756 11.4609 8.57986C11.7606 8.49216 12.078 8.48394 12.3819 8.55602C12.6857 8.6281 12.9656 8.77799 13.194 8.99097C13.4224 9.20395 13.5914 9.47269 13.6846 9.77078C13.7777 10.0689 13.7916 10.3861 13.725 10.6912C13.6584 10.9963 13.5136 11.2788 13.3048 11.511C13.096 11.7432 12.8304 11.9171 12.534 12.0156C12.1806 12.1471 11.8772 12.3857 11.6661 12.6981C11.455 13.0105 11.3469 13.3811 11.3568 13.758V14.5116C11.3568 14.6707 11.42 14.8233 11.5325 14.9358C11.6451 15.0484 11.7977 15.1116 11.9568 15.1116C12.1159 15.1116 12.2685 15.0484 12.3811 14.9358C12.4936 14.8233 12.5568 14.6707 12.5568 14.5116V13.758C12.5489 13.632 12.5796 13.5067 12.6447 13.3986C12.7099 13.2905 12.8065 13.2049 12.9216 13.1532C13.5338 12.947 14.0631 12.5484 14.4304 12.017C14.7978 11.4856 14.9837 10.8498 14.9603 10.2041C14.937 9.55853 14.7057 8.93773 14.3009 8.43423C13.8961 7.93073 13.3407 7.57147 12.7152 7.40998ZM11.958 16.1604C11.8595 16.1604 11.762 16.1798 11.671 16.2175C11.58 16.2552 11.4973 16.3104 11.4277 16.3801C11.358 16.4497 11.3028 16.5324 11.2651 16.6234C11.2274 16.7144 11.208 16.8119 11.208 16.9104C11.208 17.0089 11.2274 17.1064 11.2651 17.1974C11.3028 17.2884 11.358 17.3711 11.4277 17.4407C11.4973 17.5104 11.58 17.5656 11.671 17.6033C11.762 17.641 11.8595 17.6604 11.958 17.6604C12.1569 17.6604 12.3477 17.5814 12.4883 17.4407C12.629 17.3001 12.708 17.1093 12.708 16.9104C12.708 16.7115 12.629 16.5207 12.4883 16.3801C12.3477 16.2394 12.1569 16.1604 11.958 16.1604ZM12 0.0839844C5.3724 0.0839844 0 5.45638 0 12.084C0 18.7116 5.3724 24.084 12 24.084C18.624 24.0768 23.9928 18.708 24 12.084C24 5.45638 18.6276 0.0839844 12 0.0839844ZM12 22.884C10.5817 22.884 9.17734 22.6046 7.86702 22.0619C6.5567 21.5191 5.36612 20.7236 4.36325 19.7207C3.36037 18.7179 2.56485 17.5273 2.0221 16.217C1.47935 14.9066 1.2 13.5023 1.2 12.084C1.2 10.6657 1.47935 9.26132 2.0221 7.951C2.56485 6.64069 3.36037 5.4501 4.36325 4.44723C5.36612 3.44436 6.5567 2.64884 7.86702 2.10609C9.17734 1.56333 10.5817 1.28398 12 1.28398C14.8634 1.28716 17.6085 2.42603 19.6332 4.45074C21.658 6.47544 22.7968 9.22062 22.8 12.084C22.8 14.9483 21.6621 17.6953 19.6368 19.7207C17.6114 21.7461 14.8643 22.884 12 22.884Z"
        fill="currentColor" />
</svg>