<svg width="15" height="15" viewBox="0 0 15 15" fill="none" xmlns="http://www.w3.org/2000/svg">
    <path
        d="M13.8929 3.21608V0.928576C13.8929 0.612504 13.6375 0.357147 13.3214 0.357147H1.25001C0.933935 0.357147 0.678578 0.612504 0.678578 0.928576V3.21608C0.380364 3.23393 0.142864 3.48215 0.142864 3.78572V6.13751C0.14172 6.56973 0.229238 6.99759 0.400007 7.39465C0.476792 7.57679 0.571435 7.74822 0.678578 7.91072V14.0714C0.678578 14.3857 0.933935 14.6429 1.25001 14.6429H13.3214C13.6375 14.6429 13.8929 14.3875 13.8929 14.0714V7.91072C14.0017 7.74781 14.095 7.57502 14.1714 7.39465C14.3411 6.99643 14.4286 6.57322 14.4286 6.13751V3.78572C14.4286 3.48215 14.1911 3.23393 13.8929 3.21608ZM1.96429 1.64286H12.6072V3.21429H1.96429V1.64286ZM8.42858 13.3589H6.14286V11.5H8.42858V13.3589ZM12.6072 13.3589H9.57144V10.9286C9.57144 10.6125 9.31608 10.3571 9.00001 10.3571H5.57144C5.25536 10.3571 5.00001 10.6125 5.00001 10.9286V13.3589H1.96429V9.03393C2.01608 9.05893 2.06965 9.08393 2.12501 9.10536C2.52322 9.27322 2.94644 9.35715 3.38215 9.35715C3.81786 9.35715 4.23929 9.27322 4.63929 9.10536C4.88572 9.00179 5.11786 8.86965 5.33036 8.71072C5.33394 8.70893 5.33751 8.70893 5.34108 8.71072C5.55424 8.87032 5.78637 9.00288 6.03215 9.10536C6.43036 9.27322 6.85358 9.35715 7.28929 9.35715C7.72501 9.35715 8.14643 9.27322 8.54644 9.10536C8.79286 9.00179 9.02501 8.86965 9.23751 8.71072C9.24108 8.70893 9.24465 8.70893 9.24822 8.71072C9.46138 8.87032 9.69351 9.00288 9.93929 9.10536C10.3375 9.27322 10.7607 9.35715 11.1964 9.35715C11.6321 9.35715 12.0536 9.27322 12.4536 9.10536C12.5072 9.08215 12.5607 9.05893 12.6143 9.03393V13.3589H12.6072ZM13.1429 6.13751C13.1429 7.20536 12.2679 8.07143 11.1911 8.07143C10.4625 8.07143 9.82679 7.67679 9.49108 7.09108C9.43929 7.00179 9.34644 6.94643 9.24286 6.94643H9.23215C9.13036 6.94643 9.03572 7.00179 8.98394 7.09108C8.81261 7.38986 8.56524 7.63795 8.26696 7.81014C7.96868 7.98234 7.63013 8.07249 7.28572 8.07143C6.55894 8.07143 5.92501 7.67858 5.58929 7.09465C5.53572 7.00358 5.43929 6.94643 5.33394 6.94643C5.22858 6.94643 5.13036 7.00358 5.07858 7.09465C4.90626 7.39228 4.65857 7.63927 4.36044 7.81075C4.06232 7.98222 3.72428 8.07214 3.38036 8.07143C2.30358 8.07143 1.42858 7.20536 1.42858 6.13751V4.50893C1.42858 4.50358 1.43215 4.5 1.43751 4.5H13.1339C13.1393 4.5 13.1429 4.50358 13.1429 4.50893V6.13751Z"
        fill="currentColor" />
</svg>