<svg width="20" height="21" viewBox="0 0 20 21" fill="none" xmlns="http://www.w3.org/2000/svg">
<path d="M11.73 18.554C11.5542 18.834 11.3018 19.0664 10.9982 19.228C10.6946 19.3896 10.3504 19.4746 10 19.4746C9.64962 19.4746 9.30539 19.3896 9.00177 19.228C8.69816 19.0664 8.44581 18.834 8.27 18.554M16 6.54337C16 5.07318 15.3679 3.6632 14.2426 2.62362C13.1174 1.58403 11.5913 1 10 1C8.4087 1 6.88258 1.58403 5.75736 2.62362C4.63214 3.6632 4 5.07318 4 6.54337C4 13.0106 1 14.8584 1 14.8584H19C19 14.8584 16 13.0106 16 6.54337Z" stroke="black" stroke-opacity="0.3" stroke-width="1.5" stroke-linecap="round" stroke-linejoin="round"/>
</svg>
