<svg width="15" height="9" viewBox="0 0 15 9" fill="none" xmlns="http://www.w3.org/2000/svg">
<path d="M14.7032 1.78341L8.05409 8.77188C7.97493 8.85483 7.88918 8.91372 7.79683 8.94856C7.70449 8.9834 7.60554 9.00054 7.5 8.99999C7.39446 8.99999 7.29551 8.98257 7.20317 8.94773C7.11082 8.91289 7.02507 8.85427 6.94591 8.77188L0.277044 1.78341C0.0923479 1.58986 -3.62035e-07 1.34792 -3.75771e-07 1.0576C-3.89507e-07 0.767279 0.0989442 0.518432 0.296833 0.311059C0.494723 0.103686 0.725593 -2.93029e-08 0.989445 -3.99585e-08C1.2533 -5.06141e-08 1.48417 0.103686 1.68206 0.311059L7.5 6.40782L13.3179 0.311058C13.5026 0.11751 13.7303 0.0207361 14.0011 0.0207361C14.2718 0.0207361 14.5058 0.124423 14.7032 0.331796C14.9011 0.539169 15 0.781104 15 1.0576C15 1.3341 14.9011 1.57603 14.7032 1.78341Z" fill="#4CAF50"/>
</svg>
