<svg width="15" height="15" viewBox="0 0 15 15" fill="none" xmlns="http://www.w3.org/2000/svg">
<path d="M14.375 9.375H13.125V10.625H14.375V9.375ZM14.375 6.875H13.125V8.125H14.375V6.875ZM14.375 11.875H13.125V13.125C13.75 13.125 14.375 12.5 14.375 11.875ZM9.375 1.875H8.125V3.125H9.375V1.875ZM14.375 4.375H13.125V5.625H14.375V4.375ZM13.125 1.875V3.125H14.375C14.375 2.5 13.75 1.875 13.125 1.875ZM1.875 4.375H0.625V5.625H1.875V4.375ZM9.375 11.875H8.125V13.125H9.375V11.875ZM11.875 1.875H10.625V3.125H11.875V1.875ZM11.875 11.875H10.625V13.125H11.875V11.875ZM1.875 1.875C1.25 1.875 0.625 2.5 0.625 3.125H1.875V1.875ZM1.875 6.875H0.625V8.125H1.875V6.875ZM6.875 1.875H5.625V3.125H6.875V1.875ZM4.375 1.875H3.125V3.125H4.375V1.875Z" fill="#1976D2"/>
<path d="M9.42248 13.1249L2.72099 13.1249C1.56819 13.1249 0.625 12.1817 0.625 11.0289V6.83697L9.42248 6.83691V13.1249Z" fill="#1976D2"/>
</svg>
