<svg width="18" height="18" viewBox="0 0 18 18" fill="none" xmlns="http://www.w3.org/2000/svg">
<circle cx="8.52554" cy="8.52554" r="8.52554" fill="#D32F2F" fill-opacity="0.7"/>
<path d="M9.87693 2.0249L9.58546 10.9544H7.46569L7.16539 2.0249H9.87693ZM7.09473 13.719C7.09473 13.3421 7.22427 13.0301 7.48335 12.7828C7.74832 12.5296 8.09573 12.403 8.52557 12.403C8.9613 12.403 9.30871 12.5296 9.5678 12.7828C9.82688 13.0301 9.95642 13.3421 9.95642 13.719C9.95642 14.0841 9.82688 14.3932 9.5678 14.6464C9.30871 14.8996 8.9613 15.0262 8.52557 15.0262C8.09573 15.0262 7.74832 14.8996 7.48335 14.6464C7.22427 14.3932 7.09473 14.0841 7.09473 13.719Z" fill="white"/>
</svg>
