<svg width="26" height="33" viewBox="0 0 26 33" fill="none" xmlns="http://www.w3.org/2000/svg">
    <path
        d="M25.1299 10.887L25.1436 31.3442C25.1441 32.1944 24.4508 32.8882 23.6006 32.8882H1.59377C0.744022 32.8882 0.0507812 32.1949 0.0507812 31.3452V2.43118C0.0507812 1.58142 0.744022 0.888184 1.59377 0.888184H14.8644C15.281 0.888184 15.6393 1.03347 15.9383 1.32335L24.6611 9.78021C24.9719 10.0815 25.1298 10.4541 25.1299 10.887ZM22.9049 9.73002C21.3739 8.15896 18.0289 4.86305 16.2958 3.1792C16.1447 3.03255 15.9329 2.99257 15.7388 3.07389C15.5445 3.15521 15.4246 3.33435 15.4232 3.54478L15.3871 9.06009C15.3817 9.90984 16.0804 10.6031 16.9301 10.6031H22.5365C22.7477 10.6031 22.9282 10.4833 23.0102 10.2887C23.0924 10.0941 23.0523 9.88126 22.9048 9.72985L22.9049 9.73002ZM19.5896 25.2397C18.9125 26.0669 17.5164 25.7982 16.6702 25.4131C16.5856 25.3736 16.5355 25.3998 16.52 25.4913L16.2556 27.076C16.2428 27.1478 16.2704 27.1973 16.3381 27.224C18.0601 27.9411 20.5501 27.7718 21.5191 25.9548C22.1806 24.7151 22.1072 23.519 21.2992 22.3667C20.7745 21.6158 19.8288 21.0699 19.0291 20.5475C18.3838 20.1286 18.223 19.0963 18.8959 18.597C19.4923 18.1527 20.4593 18.3368 21.0981 18.6329C21.17 18.6668 21.2131 18.6443 21.2272 18.5652L21.5234 16.9765C21.5361 16.9032 21.5079 16.8523 21.4388 16.824C17.2374 15.0703 14.2905 20.139 18.1154 22.519C18.9382 23.0309 20.5187 24.1078 19.59 25.2396L19.5896 25.2397ZM6.18992 23.7207C6.19383 23.7018 6.21033 23.6884 6.22939 23.6884C6.24776 23.6884 6.26273 23.7013 6.26834 23.7185L7.48249 27.4144C7.50512 27.4807 7.55156 27.5139 7.62216 27.5139H9.59386C9.68419 27.5139 9.71294 27.4722 9.68062 27.389L7.65823 22.2398C7.60158 22.0913 7.60379 21.9326 7.65806 21.7883L9.57055 16.7119C9.60441 16.6204 9.57259 16.5745 9.47528 16.5745L7.6009 16.5704C7.52332 16.5704 7.47399 16.6077 7.45289 16.6825L6.52625 20.171C6.51825 20.1974 6.49358 20.2156 6.46568 20.2156C6.43863 20.2156 6.41346 20.1989 6.40563 20.173L5.36688 16.7058C5.34 16.617 5.28011 16.5726 5.18706 16.5726L3.23663 16.5769C3.13796 16.5769 3.10529 16.6226 3.13915 16.7143L4.99023 21.7344C5.03429 21.8469 5.03871 21.9799 4.99499 22.0997L3.05664 27.3955C3.02704 27.4758 3.05528 27.5161 3.14119 27.5161L5.03038 27.5141C5.10506 27.5141 5.15235 27.478 5.17209 27.4061L6.18958 23.7209L6.18992 23.7207ZM12.82 25.7283C12.7768 25.7282 12.7418 25.6933 12.7418 25.6499L12.7416 16.6526C12.7418 16.6094 12.7066 16.5743 12.6633 16.5743L10.6894 16.5723C10.6462 16.5723 10.6112 16.6075 10.6112 16.6505L10.611 27.4375C10.6112 27.4807 10.6461 27.5158 10.6894 27.5158H15.4748C15.518 27.5158 15.553 27.4807 15.553 27.4375L15.555 25.8086C15.5552 25.7652 15.52 25.7304 15.4768 25.7304L12.8197 25.7283H12.82Z"
        fill="#BA68C8" />
</svg>